G04 #@! TF.GenerationSoftware,KiCad,Pcbnew,(5.1.8)-1*
G04 #@! TF.CreationDate,2023-04-09T21:37:19+02:00*
G04 #@! TF.ProjectId,BulkyModem FP2,42756c6b-794d-46f6-9465-6d204650322e,rev?*
G04 #@! TF.SameCoordinates,Original*
G04 #@! TF.FileFunction,Legend,Bot*
G04 #@! TF.FilePolarity,Positive*
%FSLAX46Y46*%
G04 Gerber Fmt 4.6, Leading zero omitted, Abs format (unit mm)*
G04 Created by KiCad (PCBNEW (5.1.8)-1) date 2023-04-09 21:37:19*
%MOMM*%
%LPD*%
G01*
G04 APERTURE LIST*
%ADD10C,0.100000*%
G04 APERTURE END LIST*
D10*
X95457142Y-126049000D02*
X95419047Y-125934714D01*
X95380952Y-125896619D01*
X95304761Y-125858523D01*
X95190476Y-125858523D01*
X95114285Y-125896619D01*
X95076190Y-125934714D01*
X95038095Y-126010904D01*
X95038095Y-126315666D01*
X95838095Y-126315666D01*
X95838095Y-126049000D01*
X95800000Y-125972809D01*
X95761904Y-125934714D01*
X95685714Y-125896619D01*
X95609523Y-125896619D01*
X95533333Y-125934714D01*
X95495238Y-125972809D01*
X95457142Y-126049000D01*
X95457142Y-126315666D01*
X95571428Y-125172809D02*
X95038095Y-125172809D01*
X95571428Y-125515666D02*
X95152380Y-125515666D01*
X95076190Y-125477571D01*
X95038095Y-125401380D01*
X95038095Y-125287095D01*
X95076190Y-125210904D01*
X95114285Y-125172809D01*
X95038095Y-124677571D02*
X95076190Y-124753761D01*
X95152380Y-124791857D01*
X95838095Y-124791857D01*
X95038095Y-124372809D02*
X95838095Y-124372809D01*
X95342857Y-124296619D02*
X95038095Y-124068047D01*
X95571428Y-124068047D02*
X95266666Y-124372809D01*
X95571428Y-123801380D02*
X95038095Y-123610904D01*
X95571428Y-123420428D02*
X95038095Y-123610904D01*
X94847619Y-123687095D01*
X94809523Y-123725190D01*
X94771428Y-123801380D01*
X95038095Y-123115666D02*
X95838095Y-123115666D01*
X95266666Y-122849000D01*
X95838095Y-122582333D01*
X95038095Y-122582333D01*
X95038095Y-122087095D02*
X95076190Y-122163285D01*
X95114285Y-122201380D01*
X95190476Y-122239476D01*
X95419047Y-122239476D01*
X95495238Y-122201380D01*
X95533333Y-122163285D01*
X95571428Y-122087095D01*
X95571428Y-121972809D01*
X95533333Y-121896619D01*
X95495238Y-121858523D01*
X95419047Y-121820428D01*
X95190476Y-121820428D01*
X95114285Y-121858523D01*
X95076190Y-121896619D01*
X95038095Y-121972809D01*
X95038095Y-122087095D01*
X95038095Y-121134714D02*
X95838095Y-121134714D01*
X95076190Y-121134714D02*
X95038095Y-121210904D01*
X95038095Y-121363285D01*
X95076190Y-121439476D01*
X95114285Y-121477571D01*
X95190476Y-121515666D01*
X95419047Y-121515666D01*
X95495238Y-121477571D01*
X95533333Y-121439476D01*
X95571428Y-121363285D01*
X95571428Y-121210904D01*
X95533333Y-121134714D01*
X95076190Y-120449000D02*
X95038095Y-120525190D01*
X95038095Y-120677571D01*
X95076190Y-120753761D01*
X95152380Y-120791857D01*
X95457142Y-120791857D01*
X95533333Y-120753761D01*
X95571428Y-120677571D01*
X95571428Y-120525190D01*
X95533333Y-120449000D01*
X95457142Y-120410904D01*
X95380952Y-120410904D01*
X95304761Y-120791857D01*
X95038095Y-120068047D02*
X95571428Y-120068047D01*
X95495238Y-120068047D02*
X95533333Y-120029952D01*
X95571428Y-119953761D01*
X95571428Y-119839476D01*
X95533333Y-119763285D01*
X95457142Y-119725190D01*
X95038095Y-119725190D01*
X95457142Y-119725190D02*
X95533333Y-119687095D01*
X95571428Y-119610904D01*
X95571428Y-119496619D01*
X95533333Y-119420428D01*
X95457142Y-119382333D01*
X95038095Y-119382333D01*
X94157142Y-129915666D02*
X94157142Y-130182333D01*
X93738095Y-130182333D02*
X94538095Y-130182333D01*
X94538095Y-129801380D01*
X93738095Y-129496619D02*
X94271428Y-129496619D01*
X94119047Y-129496619D02*
X94195238Y-129458523D01*
X94233333Y-129420428D01*
X94271428Y-129344238D01*
X94271428Y-129268047D01*
X93738095Y-128887095D02*
X93776190Y-128963285D01*
X93814285Y-129001380D01*
X93890476Y-129039476D01*
X94119047Y-129039476D01*
X94195238Y-129001380D01*
X94233333Y-128963285D01*
X94271428Y-128887095D01*
X94271428Y-128772809D01*
X94233333Y-128696619D01*
X94195238Y-128658523D01*
X94119047Y-128620428D01*
X93890476Y-128620428D01*
X93814285Y-128658523D01*
X93776190Y-128696619D01*
X93738095Y-128772809D01*
X93738095Y-128887095D01*
X94271428Y-128277571D02*
X93738095Y-128277571D01*
X94195238Y-128277571D02*
X94233333Y-128239476D01*
X94271428Y-128163285D01*
X94271428Y-128049000D01*
X94233333Y-127972809D01*
X94157142Y-127934714D01*
X93738095Y-127934714D01*
X94271428Y-127668047D02*
X94271428Y-127363285D01*
X94538095Y-127553761D02*
X93852380Y-127553761D01*
X93776190Y-127515666D01*
X93738095Y-127439476D01*
X93738095Y-127363285D01*
X93738095Y-126487095D02*
X94538095Y-126487095D01*
X94538095Y-126182333D01*
X94500000Y-126106142D01*
X94461904Y-126068047D01*
X94385714Y-126029952D01*
X94271428Y-126029952D01*
X94195238Y-126068047D01*
X94157142Y-126106142D01*
X94119047Y-126182333D01*
X94119047Y-126487095D01*
X93738095Y-125344238D02*
X94157142Y-125344238D01*
X94233333Y-125382333D01*
X94271428Y-125458523D01*
X94271428Y-125610904D01*
X94233333Y-125687095D01*
X93776190Y-125344238D02*
X93738095Y-125420428D01*
X93738095Y-125610904D01*
X93776190Y-125687095D01*
X93852380Y-125725190D01*
X93928571Y-125725190D01*
X94004761Y-125687095D01*
X94042857Y-125610904D01*
X94042857Y-125420428D01*
X94080952Y-125344238D01*
X94271428Y-124963285D02*
X93738095Y-124963285D01*
X94195238Y-124963285D02*
X94233333Y-124925190D01*
X94271428Y-124849000D01*
X94271428Y-124734714D01*
X94233333Y-124658523D01*
X94157142Y-124620428D01*
X93738095Y-124620428D01*
X93776190Y-123934714D02*
X93738095Y-124010904D01*
X93738095Y-124163285D01*
X93776190Y-124239476D01*
X93852380Y-124277571D01*
X94157142Y-124277571D01*
X94233333Y-124239476D01*
X94271428Y-124163285D01*
X94271428Y-124010904D01*
X94233333Y-123934714D01*
X94157142Y-123896619D01*
X94080952Y-123896619D01*
X94004761Y-124277571D01*
X93738095Y-123439476D02*
X93776190Y-123515666D01*
X93852380Y-123553761D01*
X94538095Y-123553761D01*
X94157142Y-122258523D02*
X94157142Y-122525190D01*
X93738095Y-122525190D02*
X94538095Y-122525190D01*
X94538095Y-122144238D01*
X93738095Y-121839476D02*
X94538095Y-121839476D01*
X94538095Y-121534714D01*
X94500000Y-121458523D01*
X94461904Y-121420428D01*
X94385714Y-121382333D01*
X94271428Y-121382333D01*
X94195238Y-121420428D01*
X94157142Y-121458523D01*
X94119047Y-121534714D01*
X94119047Y-121839476D01*
X94461904Y-121077571D02*
X94500000Y-121039476D01*
X94538095Y-120963285D01*
X94538095Y-120772809D01*
X94500000Y-120696619D01*
X94461904Y-120658523D01*
X94385714Y-120620428D01*
X94309523Y-120620428D01*
X94195238Y-120658523D01*
X93738095Y-121115666D01*
X93738095Y-120620428D01*
X93433333Y-119439476D02*
X93471428Y-119477571D01*
X93585714Y-119553761D01*
X93661904Y-119591857D01*
X93776190Y-119629952D01*
X93966666Y-119668047D01*
X94119047Y-119668047D01*
X94309523Y-119629952D01*
X94423809Y-119591857D01*
X94500000Y-119553761D01*
X94614285Y-119477571D01*
X94652380Y-119439476D01*
X93738095Y-119134714D02*
X94271428Y-119134714D01*
X94119047Y-119134714D02*
X94195238Y-119096619D01*
X94233333Y-119058523D01*
X94271428Y-118982333D01*
X94271428Y-118906142D01*
X93776190Y-118334714D02*
X93738095Y-118410904D01*
X93738095Y-118563285D01*
X93776190Y-118639476D01*
X93852380Y-118677571D01*
X94157142Y-118677571D01*
X94233333Y-118639476D01*
X94271428Y-118563285D01*
X94271428Y-118410904D01*
X94233333Y-118334714D01*
X94157142Y-118296619D01*
X94080952Y-118296619D01*
X94004761Y-118677571D01*
X94271428Y-118029952D02*
X93738095Y-117839476D01*
X94271428Y-117649000D01*
X93814285Y-117344238D02*
X93776190Y-117306142D01*
X93738095Y-117344238D01*
X93776190Y-117382333D01*
X93814285Y-117344238D01*
X93738095Y-117344238D01*
X93966666Y-116391857D02*
X93966666Y-116010904D01*
X93738095Y-116468047D02*
X94538095Y-116201380D01*
X93738095Y-115934714D01*
X93433333Y-115744238D02*
X93471428Y-115706142D01*
X93585714Y-115629952D01*
X93661904Y-115591857D01*
X93776190Y-115553761D01*
X93966666Y-115515666D01*
X94119047Y-115515666D01*
X94309523Y-115553761D01*
X94423809Y-115591857D01*
X94500000Y-115629952D01*
X94614285Y-115706142D01*
X94652380Y-115744238D01*
X92971428Y-127172809D02*
X92323809Y-127172809D01*
X92247619Y-127210904D01*
X92209523Y-127249000D01*
X92171428Y-127325190D01*
X92171428Y-127439476D01*
X92209523Y-127515666D01*
X92476190Y-127172809D02*
X92438095Y-127249000D01*
X92438095Y-127401380D01*
X92476190Y-127477571D01*
X92514285Y-127515666D01*
X92590476Y-127553761D01*
X92819047Y-127553761D01*
X92895238Y-127515666D01*
X92933333Y-127477571D01*
X92971428Y-127401380D01*
X92971428Y-127249000D01*
X92933333Y-127172809D01*
X92438095Y-126791857D02*
X92971428Y-126791857D01*
X93238095Y-126791857D02*
X93200000Y-126829952D01*
X93161904Y-126791857D01*
X93200000Y-126753761D01*
X93238095Y-126791857D01*
X93161904Y-126791857D01*
X92971428Y-126525190D02*
X92971428Y-126220428D01*
X93238095Y-126410904D02*
X92552380Y-126410904D01*
X92476190Y-126372809D01*
X92438095Y-126296619D01*
X92438095Y-126220428D01*
X92438095Y-125953761D02*
X93238095Y-125953761D01*
X92438095Y-125610904D02*
X92857142Y-125610904D01*
X92933333Y-125649000D01*
X92971428Y-125725190D01*
X92971428Y-125839476D01*
X92933333Y-125915666D01*
X92895238Y-125953761D01*
X92971428Y-124887095D02*
X92438095Y-124887095D01*
X92971428Y-125229952D02*
X92552380Y-125229952D01*
X92476190Y-125191857D01*
X92438095Y-125115666D01*
X92438095Y-125001380D01*
X92476190Y-124925190D01*
X92514285Y-124887095D01*
X92438095Y-124506142D02*
X93238095Y-124506142D01*
X92933333Y-124506142D02*
X92971428Y-124429952D01*
X92971428Y-124277571D01*
X92933333Y-124201380D01*
X92895238Y-124163285D01*
X92819047Y-124125190D01*
X92590476Y-124125190D01*
X92514285Y-124163285D01*
X92476190Y-124201380D01*
X92438095Y-124277571D01*
X92438095Y-124429952D01*
X92476190Y-124506142D01*
X92514285Y-123782333D02*
X92476190Y-123744238D01*
X92438095Y-123782333D01*
X92476190Y-123820428D01*
X92514285Y-123782333D01*
X92438095Y-123782333D01*
X92476190Y-123058523D02*
X92438095Y-123134714D01*
X92438095Y-123287095D01*
X92476190Y-123363285D01*
X92514285Y-123401380D01*
X92590476Y-123439476D01*
X92819047Y-123439476D01*
X92895238Y-123401380D01*
X92933333Y-123363285D01*
X92971428Y-123287095D01*
X92971428Y-123134714D01*
X92933333Y-123058523D01*
X92438095Y-122601380D02*
X92476190Y-122677571D01*
X92514285Y-122715666D01*
X92590476Y-122753761D01*
X92819047Y-122753761D01*
X92895238Y-122715666D01*
X92933333Y-122677571D01*
X92971428Y-122601380D01*
X92971428Y-122487095D01*
X92933333Y-122410904D01*
X92895238Y-122372809D01*
X92819047Y-122334714D01*
X92590476Y-122334714D01*
X92514285Y-122372809D01*
X92476190Y-122410904D01*
X92438095Y-122487095D01*
X92438095Y-122601380D01*
X92438095Y-121991857D02*
X92971428Y-121991857D01*
X92895238Y-121991857D02*
X92933333Y-121953761D01*
X92971428Y-121877571D01*
X92971428Y-121763285D01*
X92933333Y-121687095D01*
X92857142Y-121649000D01*
X92438095Y-121649000D01*
X92857142Y-121649000D02*
X92933333Y-121610904D01*
X92971428Y-121534714D01*
X92971428Y-121420428D01*
X92933333Y-121344238D01*
X92857142Y-121306142D01*
X92438095Y-121306142D01*
X93276190Y-120353761D02*
X92247619Y-121039476D01*
X92971428Y-120201380D02*
X92971428Y-119896619D01*
X93238095Y-120087095D02*
X92552380Y-120087095D01*
X92476190Y-120049000D01*
X92438095Y-119972809D01*
X92438095Y-119896619D01*
X92476190Y-119325190D02*
X92438095Y-119401380D01*
X92438095Y-119553761D01*
X92476190Y-119629952D01*
X92552380Y-119668047D01*
X92857142Y-119668047D01*
X92933333Y-119629952D01*
X92971428Y-119553761D01*
X92971428Y-119401380D01*
X92933333Y-119325190D01*
X92857142Y-119287095D01*
X92780952Y-119287095D01*
X92704761Y-119668047D01*
X92438095Y-118944238D02*
X93238095Y-118944238D01*
X92933333Y-118944238D02*
X92971428Y-118868047D01*
X92971428Y-118715666D01*
X92933333Y-118639476D01*
X92895238Y-118601380D01*
X92819047Y-118563285D01*
X92590476Y-118563285D01*
X92514285Y-118601380D01*
X92476190Y-118639476D01*
X92438095Y-118715666D01*
X92438095Y-118868047D01*
X92476190Y-118944238D01*
X92438095Y-118106142D02*
X92476190Y-118182333D01*
X92552380Y-118220428D01*
X93238095Y-118220428D01*
M02*
