M48
; DRILL file {KiCad 8.0.4} date 2024-07-28T06:14:54+0200
; FORMAT={-:-/ absolute / inch / decimal}
; #@! TF.CreationDate,2024-07-28T06:14:54+02:00
; #@! TF.GenerationSoftware,Kicad,Pcbnew,8.0.4
; #@! TF.FileFunction,Plated,1,2,PTH
FMAT,2
INCH
; #@! TA.AperFunction,Plated,PTH,ViaDrill
T1C0.0157
; #@! TA.AperFunction,Plated,PTH,ComponentDrill
T2C0.0236
; #@! TA.AperFunction,Plated,PTH,ComponentDrill
T3C0.0315
; #@! TA.AperFunction,Plated,PTH,ComponentDrill
T4C0.0354
; #@! TA.AperFunction,Plated,PTH,ComponentDrill
T5C0.0394
; #@! TA.AperFunction,Plated,PTH,ComponentDrill
T6C0.0433
; #@! TA.AperFunction,Plated,PTH,ComponentDrill
T7C0.1200
; #@! TA.AperFunction,Plated,PTH,ComponentDrill
T8C0.1260
%
G90
G05
T1
X3.3Y-5.6978
X3.5Y-5.5685
X3.5Y-5.6
X3.5Y-5.725
X3.775Y-3.175
X4.275Y-3.3
X4.35Y-4.9228
X4.369Y-4.869
X4.4Y-3.175
X4.425Y-3.2
X4.4496Y-4.125
X4.45Y-4.4
X4.475Y-4.375
X4.5Y-4.15
X4.6Y-3.775
X4.6Y-3.875
X4.6315Y-5.575
X4.65Y-4.3
X4.7Y-4.5478
X4.7478Y-4.525
X4.75Y-4.35
X4.75Y-5.075
X4.75Y-5.35
X4.775Y-4.325
X4.95Y-2.9
X5.05Y-2.95
X5.075Y-5.025
X5.175Y-2.6
X5.25Y-3.15
X5.275Y-5.625
X5.375Y-5.3
X5.5315Y-5.8
X5.5315Y-5.9
X5.725Y-3.45
X5.75Y-3.2
X5.925Y-5.575
X5.95Y-3.55
X5.975Y-3.575
T2
X3.575Y-3.6037
X3.575Y-4.7037
X3.75Y-3.6431
X3.75Y-4.7463
X3.925Y-3.6037
X3.925Y-4.7037
X4.1Y-3.6431
X4.1Y-4.7431
T3
X2.825Y-3.65
X2.85Y-4.95
X2.85Y-5.35
X2.975Y-4.95
X2.975Y-5.35
X3.125Y-3.65
X3.15Y-5.35
X3.275Y-3.225
X3.275Y-3.625
X3.3Y-2.9
X3.4378Y-2.9
X3.475Y-3.15
X3.475Y-3.3469
X3.475Y-4.2516
X3.475Y-4.4484
X3.55Y-5.35
X3.575Y-3.525
X3.575Y-3.7219
X3.575Y-4.625
X3.575Y-4.8219
X3.625Y-3.1
X3.625Y-3.4
X3.625Y-4.2
X3.625Y-4.5
X3.725Y-3.1
X3.725Y-3.4
X3.725Y-4.2
X3.725Y-4.5
X3.75Y-3.525
X3.75Y-3.7219
X3.75Y-4.6281
X3.75Y-4.825
X3.825Y-3.1
X3.825Y-3.4
X3.825Y-4.2
X3.825Y-4.5
X3.925Y-3.1
X3.925Y-3.4
X3.925Y-3.525
X3.925Y-3.7219
X3.925Y-4.2
X3.925Y-4.5
X3.925Y-4.625
X3.925Y-4.8219
X4.025Y-3.1
X4.025Y-3.4
X4.025Y-4.2
X4.025Y-4.5
X4.1Y-3.525
X4.1Y-3.7219
X4.1Y-4.625
X4.1Y-4.8219
X4.125Y-3.1
X4.125Y-3.4
X4.125Y-4.2
X4.125Y-4.5
X4.15Y-5.225
X4.15Y-5.35
X4.225Y-3.1
X4.225Y-3.4
X4.225Y-4.2
X4.225Y-4.5
X4.325Y-3.1
X4.325Y-3.4
X4.325Y-4.2
X4.325Y-4.5
X4.475Y-4.7
X4.475Y-5.1
X4.55Y-5.225
X4.55Y-5.35
X4.5781Y-4.425
X4.62Y-4.7
X4.62Y-5.1
X4.65Y-2.7781
X4.65Y-2.975
X4.65Y-5.35
X4.75Y-4.95
X4.75Y-5.1469
X4.775Y-4.425
X4.8Y-2.725
X4.8Y-3.025
X4.9Y-2.725
X4.9Y-3.025
X4.9Y-4.4246
X4.9Y-4.7246
X4.9Y-4.9
X4.9Y-5.2
X5.0Y-2.725
X5.0Y-3.025
X5.0Y-4.4246
X5.0Y-4.7246
X5.0Y-4.9
X5.0Y-5.2
X5.05Y-5.35
X5.1Y-2.725
X5.1Y-3.025
X5.1Y-4.4246
X5.1Y-4.7246
X5.1Y-4.9
X5.1Y-5.2
X5.15Y-5.35
X5.2Y-2.725
X5.2Y-3.025
X5.2Y-4.4246
X5.2Y-4.7246
X5.2Y-4.9
X5.2Y-5.2
X5.3Y-2.725
X5.3Y-3.025
X5.3Y-4.4246
X5.3Y-4.7246
X5.3Y-4.9
X5.3Y-5.2
X5.4Y-2.725
X5.4Y-3.025
X5.4Y-4.4246
X5.4Y-4.7246
X5.4Y-4.9
X5.4Y-5.2
X5.5Y-4.4246
X5.5Y-4.7246
X5.5Y-4.9
X5.5Y-5.2
X5.55Y-5.35
X5.6Y-4.4246
X5.6Y-4.7246
X5.7Y-4.4246
X5.7Y-4.7246
X5.75Y-4.9
X5.75Y-5.075
X5.8Y-3.1
X5.8Y-4.4246
X5.8Y-4.7246
X5.9Y-2.975
X5.925Y-4.575
X6.1Y-3.1
X6.1Y-4.425
X6.15Y-4.9
X6.15Y-5.075
X6.225Y-4.575
X6.3Y-2.975
X6.5Y-4.425
T4
X2.888Y-3.3248
X2.888Y-3.4248
X3.125Y-5.9
X3.125Y-6.0
X3.325Y-5.9
X3.325Y-6.0
X3.6Y-5.9
X3.6Y-6.0
X3.8Y-5.9
X3.8Y-6.0
X4.075Y-5.9
X4.075Y-6.0
X4.275Y-5.9
X4.275Y-6.0
X4.575Y-5.9
X4.575Y-6.0
X4.775Y-5.9
X4.775Y-6.0
X6.025Y-5.9
X6.025Y-6.0
X6.225Y-5.9
X6.225Y-6.0
T5
X2.85Y-4.65
X2.95Y-4.65
X3.325Y-4.175
X3.325Y-4.275
X3.325Y-4.375
X3.325Y-4.475
X3.7315Y-5.4713
X3.7364Y-2.57
X3.7909Y-2.4582
X3.8315Y-5.4713
X3.8455Y-2.57
X3.9Y-2.4582
X3.9315Y-5.4713
X3.9545Y-2.57
X4.0091Y-2.4582
X4.0315Y-5.4713
X4.0636Y-2.57
X4.1181Y-2.4582
X4.1315Y-5.4713
X4.1726Y-2.57
X4.2315Y-5.4713
X4.325Y-3.675
X4.325Y-3.775
X4.325Y-3.875
X4.3315Y-5.4713
X4.4315Y-5.4713
X4.5315Y-5.4713
X4.6315Y-5.4713
X4.7315Y-5.4713
X4.8315Y-5.4713
X4.9Y-3.275
X4.9Y-4.2593
X4.925Y-2.3
X4.925Y-2.4
X4.9315Y-5.4713
X5.0Y-3.275
X5.0Y-4.2593
X5.025Y-2.3
X5.025Y-2.4
X5.0315Y-5.4713
X5.1Y-3.275
X5.1Y-4.2593
X5.125Y-2.3
X5.125Y-2.4
X5.1315Y-5.4713
X5.2Y-3.275
X5.2Y-4.2593
X5.225Y-2.3
X5.225Y-2.4
X5.2315Y-5.4713
X5.3Y-3.275
X5.3Y-4.2593
X5.325Y-2.3
X5.325Y-2.4
X5.3315Y-5.4713
X5.4Y-3.275
X5.4Y-4.2593
X5.425Y-2.3
X5.425Y-2.4
X5.4315Y-5.4713
X5.5Y-3.275
X5.5Y-4.2593
X5.525Y-2.3
X5.525Y-2.4
X5.5315Y-5.4713
X5.6Y-3.275
X5.6Y-4.2593
X5.625Y-2.3
X5.625Y-2.4
X5.6315Y-5.4713
X5.7Y-3.275
X5.7Y-4.2593
X5.7315Y-5.4713
X5.8Y-3.275
X5.8Y-4.2593
X5.9Y-3.275
X5.9Y-4.2593
X6.0Y-3.275
X6.0Y-4.2593
X6.025Y-2.825
X6.1Y-3.275
X6.1Y-4.2593
X6.125Y-2.825
X6.175Y-4.725
X6.2Y-3.275
X6.2Y-4.2593
X6.225Y-2.825
X6.275Y-4.725
X6.3Y-3.275
X6.3Y-4.2593
X6.325Y-2.825
X6.425Y-2.825
X6.525Y-2.825
T6
X2.825Y-3.775
X2.825Y-4.075
X2.825Y-4.275
X2.825Y-4.475
X3.1Y-3.025
X3.1Y-3.425
X3.125Y-3.775
X3.125Y-4.075
X3.125Y-4.275
X3.125Y-4.475
T7
X2.888Y-3.0624
X2.888Y-5.962
X6.575Y-3.0624
X6.575Y-5.962
T8
X3.4624Y-2.5141
X4.4467Y-2.5141
T5
G00X2.865Y-2.5425
M15
G01X2.865Y-2.6213
M16
G05
G00X3.0894Y-2.4638
M15
G01X3.0106Y-2.4638
M16
G05
G00X3.0894Y-2.7
M15
G01X3.0106Y-2.7
M16
G05
M30
