G04 #@! TF.GenerationSoftware,KiCad,Pcbnew,8.0.4*
G04 #@! TF.CreationDate,2024-07-28T06:14:52+02:00*
G04 #@! TF.ProjectId,BulkyModem-32 Module,42756c6b-794d-46f6-9465-6d2d3332204d,rev?*
G04 #@! TF.SameCoordinates,Original*
G04 #@! TF.FileFunction,Soldermask,Bot*
G04 #@! TF.FilePolarity,Negative*
%FSLAX46Y46*%
G04 Gerber Fmt 4.6, Leading zero omitted, Abs format (unit mm)*
G04 Created by KiCad (PCBNEW 8.0.4) date 2024-07-28 06:14:52*
%MOMM*%
%LPD*%
G01*
G04 APERTURE LIST*
G04 Aperture macros list*
%AMRoundRect*
0 Rectangle with rounded corners*
0 $1 Rounding radius*
0 $2 $3 $4 $5 $6 $7 $8 $9 X,Y pos of 4 corners*
0 Add a 4 corners polygon primitive as box body*
4,1,4,$2,$3,$4,$5,$6,$7,$8,$9,$2,$3,0*
0 Add four circle primitives for the rounded corners*
1,1,$1+$1,$2,$3*
1,1,$1+$1,$4,$5*
1,1,$1+$1,$6,$7*
1,1,$1+$1,$8,$9*
0 Add four rect primitives between the rounded corners*
20,1,$1+$1,$2,$3,$4,$5,0*
20,1,$1+$1,$4,$5,$6,$7,0*
20,1,$1+$1,$6,$7,$8,$9,0*
20,1,$1+$1,$8,$9,$2,$3,0*%
G04 Aperture macros list end*
%ADD10R,1.700000X1.700000*%
%ADD11O,1.700000X1.700000*%
%ADD12O,1.600000X2.400000*%
%ADD13R,1.600000X2.400000*%
%ADD14C,1.600000*%
%ADD15O,1.600000X1.600000*%
%ADD16R,1.600000X1.600000*%
%ADD17C,5.100000*%
%ADD18R,1.800000X1.800000*%
%ADD19C,1.800000*%
%ADD20C,4.000000*%
%ADD21R,3.500000X3.500000*%
%ADD22O,1.800000X2.300000*%
%ADD23R,1.800000X2.300000*%
%ADD24C,1.200000*%
%ADD25C,1.700000*%
%ADD26RoundRect,0.250000X0.600000X-0.600000X0.600000X0.600000X-0.600000X0.600000X-0.600000X-0.600000X0*%
%ADD27R,2.200000X2.200000*%
%ADD28O,2.200000X2.200000*%
%ADD29R,1.500000X1.000000*%
%ADD30R,1.000000X1.500000*%
G04 APERTURE END LIST*
D10*
X153035000Y-71755000D03*
D11*
X155575000Y-71755000D03*
X158115000Y-71755000D03*
X160655000Y-71755000D03*
X163195000Y-71755000D03*
X165735000Y-71755000D03*
D12*
X121920000Y-69215000D03*
X124460000Y-69215000D03*
X127000000Y-69215000D03*
X129540000Y-69215000D03*
X132080000Y-69215000D03*
X134620000Y-69215000D03*
X137160000Y-69215000D03*
X137160000Y-76835000D03*
X134620000Y-76835000D03*
X132080000Y-76835000D03*
X129540000Y-76835000D03*
X127000000Y-76835000D03*
X124460000Y-76835000D03*
D13*
X121920000Y-76835000D03*
D14*
X165100000Y-112395000D03*
D15*
X154940000Y-112395000D03*
X149860000Y-75565000D03*
D14*
X160020000Y-75565000D03*
D16*
X154940000Y-78740000D03*
D15*
X147320000Y-78740000D03*
D16*
X150495000Y-116205000D03*
D15*
X158115000Y-116205000D03*
D17*
X167005000Y-77785000D03*
X73355000Y-77785000D03*
X167005000Y-151435000D03*
D11*
X124460000Y-108185000D03*
X127000000Y-108185000D03*
X129540000Y-108185000D03*
X132080000Y-108185000D03*
X134620000Y-108185000D03*
X137160000Y-108185000D03*
X139700000Y-108185000D03*
X142240000Y-108185000D03*
X144780000Y-108185000D03*
X147320000Y-108185000D03*
X149860000Y-108185000D03*
X152400000Y-108185000D03*
X154940000Y-108185000D03*
X157480000Y-108185000D03*
X160020000Y-108185000D03*
X160020000Y-83185000D03*
X157480000Y-83185000D03*
X154940000Y-83185000D03*
X152400000Y-83185000D03*
X149860000Y-83185000D03*
X147320000Y-83185000D03*
X144780000Y-83185000D03*
X142240000Y-83185000D03*
X139700000Y-83185000D03*
X137160000Y-83185000D03*
X134620000Y-83185000D03*
X132080000Y-83185000D03*
X129540000Y-83185000D03*
X127000000Y-83185000D03*
X124460000Y-83185000D03*
D18*
X84455000Y-149860000D03*
D19*
X84455000Y-152400000D03*
D18*
X96520000Y-149860000D03*
D19*
X96520000Y-152400000D03*
D18*
X91440000Y-149860000D03*
D19*
X91440000Y-152400000D03*
D18*
X108585000Y-149860000D03*
D19*
X108585000Y-152400000D03*
D18*
X103505000Y-149860000D03*
D19*
X103505000Y-152400000D03*
D18*
X153035000Y-149860000D03*
D19*
X153035000Y-152400000D03*
D18*
X158115000Y-149860000D03*
D19*
X158115000Y-152400000D03*
D14*
X104600000Y-62438000D03*
X101830000Y-62438000D03*
X99060000Y-62438000D03*
X96290000Y-62438000D03*
X105985000Y-65278000D03*
X103215000Y-65278000D03*
X100445000Y-65278000D03*
X97675000Y-65278000D03*
D16*
X94905000Y-65278000D03*
D20*
X87945000Y-63858000D03*
X112945000Y-63858000D03*
D10*
X94780000Y-138970000D03*
D11*
X97320000Y-138970000D03*
X99860000Y-138970000D03*
X102400000Y-138970000D03*
X104940000Y-138970000D03*
X107480000Y-138970000D03*
X110020000Y-138970000D03*
X112560000Y-138970000D03*
X115100000Y-138970000D03*
X117640000Y-138970000D03*
X120180000Y-138970000D03*
X122720000Y-138970000D03*
X125260000Y-138970000D03*
X127800000Y-138970000D03*
X130340000Y-138970000D03*
X132880000Y-138970000D03*
X135420000Y-138970000D03*
X137960000Y-138970000D03*
X140500000Y-138970000D03*
X143040000Y-138970000D03*
X145580000Y-138970000D03*
X74930000Y-118110000D03*
D10*
X72390000Y-118110000D03*
X159385000Y-120015000D03*
D11*
X156845000Y-120015000D03*
D17*
X73355000Y-151435000D03*
D14*
X115570000Y-132715000D03*
D15*
X105410000Y-132715000D03*
D14*
X80010000Y-135890000D03*
D15*
X90170000Y-135890000D03*
D14*
X118110000Y-135890000D03*
D15*
X128270000Y-135890000D03*
D14*
X105410000Y-135890000D03*
D15*
X115570000Y-135890000D03*
D14*
X113665000Y-119380000D03*
D15*
X113665000Y-129540000D03*
D14*
X117348000Y-119380000D03*
D15*
X117348000Y-129540000D03*
D13*
X92075000Y-114300000D03*
D12*
X94615000Y-114300000D03*
X97155000Y-114300000D03*
X99695000Y-114300000D03*
X102235000Y-114300000D03*
X104775000Y-114300000D03*
X107315000Y-114300000D03*
X109855000Y-114300000D03*
X109855000Y-106680000D03*
X107315000Y-106680000D03*
X104775000Y-106680000D03*
X102235000Y-106680000D03*
X99695000Y-106680000D03*
X97155000Y-106680000D03*
X94615000Y-106680000D03*
X92075000Y-106680000D03*
D21*
X77470000Y-68580000D03*
X77470000Y-62580000D03*
X72770000Y-65580000D03*
D22*
X79375000Y-95885000D03*
X79375000Y-103505000D03*
X79375000Y-108585000D03*
X79375000Y-113665000D03*
X71755000Y-113665000D03*
X71755000Y-108585000D03*
X71755000Y-103505000D03*
D23*
X71755000Y-95885000D03*
D14*
X90805000Y-89535000D03*
D24*
X90805000Y-91535000D03*
D14*
X90805000Y-94535000D03*
X104140000Y-94535000D03*
D24*
X104140000Y-92535000D03*
D14*
X104140000Y-89535000D03*
X99695000Y-89535000D03*
D24*
X99695000Y-91535000D03*
D14*
X99695000Y-94535000D03*
X95250000Y-94535000D03*
D24*
X95250000Y-92535000D03*
D14*
X95250000Y-89535000D03*
X88265000Y-80010000D03*
X88265000Y-85010000D03*
X118110000Y-75565000D03*
X118110000Y-70565000D03*
D18*
X116205000Y-149860000D03*
D19*
X116205000Y-152400000D03*
D14*
X130810000Y-135890000D03*
D15*
X140970000Y-135890000D03*
D13*
X92075000Y-86360000D03*
D12*
X94615000Y-86360000D03*
X97155000Y-86360000D03*
X99695000Y-86360000D03*
X102235000Y-86360000D03*
X104775000Y-86360000D03*
X107315000Y-86360000D03*
X109855000Y-86360000D03*
X109855000Y-78740000D03*
X107315000Y-78740000D03*
X104775000Y-78740000D03*
X102235000Y-78740000D03*
X99695000Y-78740000D03*
X97155000Y-78740000D03*
X94615000Y-78740000D03*
X92075000Y-78740000D03*
D14*
X116285000Y-112395000D03*
X121285000Y-112395000D03*
X88265000Y-107990000D03*
X88265000Y-112990000D03*
X95250000Y-122555000D03*
D24*
X95250000Y-120555000D03*
D14*
X95250000Y-117555000D03*
X99695000Y-117475000D03*
D24*
X99695000Y-119475000D03*
D14*
X99695000Y-122475000D03*
X90805000Y-117475000D03*
D24*
X90805000Y-119475000D03*
D14*
X90805000Y-122475000D03*
X104140000Y-122475000D03*
D24*
X104140000Y-120475000D03*
D14*
X104140000Y-117475000D03*
D25*
X142875000Y-58420000D03*
X140335000Y-58420000D03*
X137795000Y-58420000D03*
X135255000Y-58420000D03*
X132715000Y-58420000D03*
X130175000Y-58420000D03*
X127635000Y-58420000D03*
X125095000Y-58420000D03*
X142875000Y-60960000D03*
X140335000Y-60960000D03*
X137795000Y-60960000D03*
X135255000Y-60960000D03*
X132715000Y-60960000D03*
X130175000Y-60960000D03*
X127635000Y-60960000D03*
D26*
X125095000Y-60960000D03*
D14*
X75565000Y-125730000D03*
D15*
X75565000Y-135890000D03*
D18*
X121285000Y-149860000D03*
D19*
X121285000Y-152400000D03*
D14*
X146050000Y-124460000D03*
D15*
X156210000Y-124460000D03*
D14*
X120650000Y-125730000D03*
X120650000Y-130730000D03*
D27*
X78740000Y-86995000D03*
D28*
X78740000Y-76835000D03*
D14*
X72390000Y-125730000D03*
D15*
X72390000Y-135890000D03*
D13*
X124460000Y-132080000D03*
D12*
X127000000Y-132080000D03*
X129540000Y-132080000D03*
X132080000Y-132080000D03*
X134620000Y-132080000D03*
X137160000Y-132080000D03*
X139700000Y-132080000D03*
X139700000Y-124460000D03*
X137160000Y-124460000D03*
X134620000Y-124460000D03*
X132080000Y-124460000D03*
X129540000Y-124460000D03*
X127000000Y-124460000D03*
X124460000Y-124460000D03*
D18*
X79375000Y-149860000D03*
D19*
X79375000Y-152400000D03*
D18*
X73355000Y-84450000D03*
D19*
X73355000Y-86990000D03*
D14*
X83185000Y-81915000D03*
D15*
X83185000Y-92075000D03*
D16*
X83820000Y-73660000D03*
D14*
X87320000Y-73660000D03*
X146050000Y-128905000D03*
D15*
X156210000Y-128905000D03*
D10*
X84455000Y-106045000D03*
D11*
X84455000Y-108585000D03*
X84455000Y-111125000D03*
X84455000Y-113665000D03*
X109855000Y-98425000D03*
X109855000Y-95885000D03*
X109855000Y-93345000D03*
D29*
X75565000Y-109235000D03*
X75565000Y-107935000D03*
D30*
X96520000Y-83185000D03*
X97820000Y-83185000D03*
D15*
X79375000Y-92710000D03*
D16*
X71755000Y-92710000D03*
D13*
X124460000Y-120005000D03*
D12*
X127000000Y-120005000D03*
X129540000Y-120005000D03*
X132080000Y-120005000D03*
X134620000Y-120005000D03*
X137160000Y-120005000D03*
X139700000Y-120005000D03*
X142240000Y-120005000D03*
X144780000Y-120005000D03*
X147320000Y-120005000D03*
X147320000Y-112385000D03*
X144780000Y-112385000D03*
X142240000Y-112385000D03*
X139700000Y-112385000D03*
X137160000Y-112385000D03*
X134620000Y-112385000D03*
X132080000Y-112385000D03*
X129540000Y-112385000D03*
X127000000Y-112385000D03*
X124460000Y-112385000D03*
M02*
