G04 #@! TF.GenerationSoftware,KiCad,Pcbnew,8.0.4*
G04 #@! TF.CreationDate,2024-07-28T06:14:52+02:00*
G04 #@! TF.ProjectId,BulkyModem-32 Module,42756c6b-794d-46f6-9465-6d2d3332204d,rev?*
G04 #@! TF.SameCoordinates,Original*
G04 #@! TF.FileFunction,Legend,Bot*
G04 #@! TF.FilePolarity,Positive*
%FSLAX46Y46*%
G04 Gerber Fmt 4.6, Leading zero omitted, Abs format (unit mm)*
G04 Created by KiCad (PCBNEW 8.0.4) date 2024-07-28 06:14:52*
%MOMM*%
%LPD*%
G01*
G04 APERTURE LIST*
%ADD10C,0.150000*%
%ADD11C,0.100000*%
%ADD12C,0.500000*%
%ADD13C,0.010000*%
%ADD14C,0.120000*%
G04 APERTURE END LIST*
D10*
X79041428Y-58509819D02*
X79517618Y-58509819D01*
X79517618Y-58509819D02*
X79565237Y-58986009D01*
X79565237Y-58986009D02*
X79517618Y-58938390D01*
X79517618Y-58938390D02*
X79422380Y-58890771D01*
X79422380Y-58890771D02*
X79184285Y-58890771D01*
X79184285Y-58890771D02*
X79089047Y-58938390D01*
X79089047Y-58938390D02*
X79041428Y-58986009D01*
X79041428Y-58986009D02*
X78993809Y-59081247D01*
X78993809Y-59081247D02*
X78993809Y-59319342D01*
X78993809Y-59319342D02*
X79041428Y-59414580D01*
X79041428Y-59414580D02*
X79089047Y-59462200D01*
X79089047Y-59462200D02*
X79184285Y-59509819D01*
X79184285Y-59509819D02*
X79422380Y-59509819D01*
X79422380Y-59509819D02*
X79517618Y-59462200D01*
X79517618Y-59462200D02*
X79565237Y-59414580D01*
X78708094Y-58509819D02*
X78374761Y-59509819D01*
X78374761Y-59509819D02*
X78041428Y-58509819D01*
X76946189Y-59509819D02*
X76946189Y-58509819D01*
X76946189Y-58509819D02*
X76708094Y-58509819D01*
X76708094Y-58509819D02*
X76565237Y-58557438D01*
X76565237Y-58557438D02*
X76469999Y-58652676D01*
X76469999Y-58652676D02*
X76422380Y-58747914D01*
X76422380Y-58747914D02*
X76374761Y-58938390D01*
X76374761Y-58938390D02*
X76374761Y-59081247D01*
X76374761Y-59081247D02*
X76422380Y-59271723D01*
X76422380Y-59271723D02*
X76469999Y-59366961D01*
X76469999Y-59366961D02*
X76565237Y-59462200D01*
X76565237Y-59462200D02*
X76708094Y-59509819D01*
X76708094Y-59509819D02*
X76946189Y-59509819D01*
X75374761Y-59414580D02*
X75422380Y-59462200D01*
X75422380Y-59462200D02*
X75565237Y-59509819D01*
X75565237Y-59509819D02*
X75660475Y-59509819D01*
X75660475Y-59509819D02*
X75803332Y-59462200D01*
X75803332Y-59462200D02*
X75898570Y-59366961D01*
X75898570Y-59366961D02*
X75946189Y-59271723D01*
X75946189Y-59271723D02*
X75993808Y-59081247D01*
X75993808Y-59081247D02*
X75993808Y-58938390D01*
X75993808Y-58938390D02*
X75946189Y-58747914D01*
X75946189Y-58747914D02*
X75898570Y-58652676D01*
X75898570Y-58652676D02*
X75803332Y-58557438D01*
X75803332Y-58557438D02*
X75660475Y-58509819D01*
X75660475Y-58509819D02*
X75565237Y-58509819D01*
X75565237Y-58509819D02*
X75422380Y-58557438D01*
X75422380Y-58557438D02*
X75374761Y-58605057D01*
D11*
X108582782Y-82905918D02*
X108963734Y-82905918D01*
X108963734Y-82905918D02*
X108963734Y-82105918D01*
X108316115Y-82905918D02*
X108316115Y-82372584D01*
X108316115Y-82105918D02*
X108354211Y-82144013D01*
X108354211Y-82144013D02*
X108316115Y-82182108D01*
X108316115Y-82182108D02*
X108278020Y-82144013D01*
X108278020Y-82144013D02*
X108316115Y-82105918D01*
X108316115Y-82105918D02*
X108316115Y-82182108D01*
X107935163Y-82372584D02*
X107935163Y-82905918D01*
X107935163Y-82448775D02*
X107897068Y-82410680D01*
X107897068Y-82410680D02*
X107820878Y-82372584D01*
X107820878Y-82372584D02*
X107706592Y-82372584D01*
X107706592Y-82372584D02*
X107630401Y-82410680D01*
X107630401Y-82410680D02*
X107592306Y-82486870D01*
X107592306Y-82486870D02*
X107592306Y-82905918D01*
X107211353Y-82905918D02*
X107211353Y-82105918D01*
X107135163Y-82601156D02*
X106906591Y-82905918D01*
X106906591Y-82372584D02*
X107211353Y-82677346D01*
X105725639Y-82105918D02*
X105725639Y-82677346D01*
X105725639Y-82677346D02*
X105763734Y-82791632D01*
X105763734Y-82791632D02*
X105839925Y-82867823D01*
X105839925Y-82867823D02*
X105954210Y-82905918D01*
X105954210Y-82905918D02*
X106030401Y-82905918D01*
X105344686Y-82905918D02*
X105344686Y-82105918D01*
X105344686Y-82105918D02*
X105039924Y-82105918D01*
X105039924Y-82105918D02*
X104963734Y-82144013D01*
X104963734Y-82144013D02*
X104925639Y-82182108D01*
X104925639Y-82182108D02*
X104887543Y-82258299D01*
X104887543Y-82258299D02*
X104887543Y-82372584D01*
X104887543Y-82372584D02*
X104925639Y-82448775D01*
X104925639Y-82448775D02*
X104963734Y-82486870D01*
X104963734Y-82486870D02*
X105039924Y-82524965D01*
X105039924Y-82524965D02*
X105344686Y-82524965D01*
X104125639Y-82905918D02*
X104582782Y-82905918D01*
X104354210Y-82905918D02*
X104354210Y-82105918D01*
X104354210Y-82105918D02*
X104430401Y-82220203D01*
X104430401Y-82220203D02*
X104506591Y-82296394D01*
X104506591Y-82296394D02*
X104582782Y-82334489D01*
X103858972Y-82105918D02*
X103363734Y-82105918D01*
X103363734Y-82105918D02*
X103630400Y-82410680D01*
X103630400Y-82410680D02*
X103516115Y-82410680D01*
X103516115Y-82410680D02*
X103439924Y-82448775D01*
X103439924Y-82448775D02*
X103401829Y-82486870D01*
X103401829Y-82486870D02*
X103363734Y-82563061D01*
X103363734Y-82563061D02*
X103363734Y-82753537D01*
X103363734Y-82753537D02*
X103401829Y-82829727D01*
X103401829Y-82829727D02*
X103439924Y-82867823D01*
X103439924Y-82867823D02*
X103516115Y-82905918D01*
X103516115Y-82905918D02*
X103744686Y-82905918D01*
X103744686Y-82905918D02*
X103820877Y-82867823D01*
X103820877Y-82867823D02*
X103858972Y-82829727D01*
X102411352Y-82905918D02*
X102411352Y-82372584D01*
X102411352Y-82105918D02*
X102449448Y-82144013D01*
X102449448Y-82144013D02*
X102411352Y-82182108D01*
X102411352Y-82182108D02*
X102373257Y-82144013D01*
X102373257Y-82144013D02*
X102411352Y-82105918D01*
X102411352Y-82105918D02*
X102411352Y-82182108D01*
X102144686Y-82372584D02*
X101839924Y-82372584D01*
X102030400Y-82905918D02*
X102030400Y-82220203D01*
X102030400Y-82220203D02*
X101992305Y-82144013D01*
X101992305Y-82144013D02*
X101916115Y-82105918D01*
X101916115Y-82105918D02*
X101839924Y-82105918D01*
X100963733Y-82372584D02*
X100963733Y-82905918D01*
X100963733Y-82448775D02*
X100925638Y-82410680D01*
X100925638Y-82410680D02*
X100849448Y-82372584D01*
X100849448Y-82372584D02*
X100735162Y-82372584D01*
X100735162Y-82372584D02*
X100658971Y-82410680D01*
X100658971Y-82410680D02*
X100620876Y-82486870D01*
X100620876Y-82486870D02*
X100620876Y-82905918D01*
X100125638Y-82905918D02*
X100201828Y-82867823D01*
X100201828Y-82867823D02*
X100239923Y-82829727D01*
X100239923Y-82829727D02*
X100278019Y-82753537D01*
X100278019Y-82753537D02*
X100278019Y-82524965D01*
X100278019Y-82524965D02*
X100239923Y-82448775D01*
X100239923Y-82448775D02*
X100201828Y-82410680D01*
X100201828Y-82410680D02*
X100125638Y-82372584D01*
X100125638Y-82372584D02*
X100011352Y-82372584D01*
X100011352Y-82372584D02*
X99935161Y-82410680D01*
X99935161Y-82410680D02*
X99897066Y-82448775D01*
X99897066Y-82448775D02*
X99858971Y-82524965D01*
X99858971Y-82524965D02*
X99858971Y-82753537D01*
X99858971Y-82753537D02*
X99897066Y-82829727D01*
X99897066Y-82829727D02*
X99935161Y-82867823D01*
X99935161Y-82867823D02*
X100011352Y-82905918D01*
X100011352Y-82905918D02*
X100125638Y-82905918D01*
X99630399Y-82372584D02*
X99325637Y-82372584D01*
X99516113Y-82105918D02*
X99516113Y-82791632D01*
X99516113Y-82791632D02*
X99478018Y-82867823D01*
X99478018Y-82867823D02*
X99401828Y-82905918D01*
X99401828Y-82905918D02*
X99325637Y-82905918D01*
X108963734Y-84193873D02*
X108963734Y-83660539D01*
X108963734Y-83393873D02*
X109001830Y-83431968D01*
X109001830Y-83431968D02*
X108963734Y-83470063D01*
X108963734Y-83470063D02*
X108925639Y-83431968D01*
X108925639Y-83431968D02*
X108963734Y-83393873D01*
X108963734Y-83393873D02*
X108963734Y-83470063D01*
X108582782Y-83660539D02*
X108582782Y-84193873D01*
X108582782Y-83736730D02*
X108544687Y-83698635D01*
X108544687Y-83698635D02*
X108468497Y-83660539D01*
X108468497Y-83660539D02*
X108354211Y-83660539D01*
X108354211Y-83660539D02*
X108278020Y-83698635D01*
X108278020Y-83698635D02*
X108239925Y-83774825D01*
X108239925Y-83774825D02*
X108239925Y-84193873D01*
X107897068Y-84155778D02*
X107820877Y-84193873D01*
X107820877Y-84193873D02*
X107668496Y-84193873D01*
X107668496Y-84193873D02*
X107592306Y-84155778D01*
X107592306Y-84155778D02*
X107554210Y-84079587D01*
X107554210Y-84079587D02*
X107554210Y-84041492D01*
X107554210Y-84041492D02*
X107592306Y-83965301D01*
X107592306Y-83965301D02*
X107668496Y-83927206D01*
X107668496Y-83927206D02*
X107782782Y-83927206D01*
X107782782Y-83927206D02*
X107858972Y-83889111D01*
X107858972Y-83889111D02*
X107897068Y-83812920D01*
X107897068Y-83812920D02*
X107897068Y-83774825D01*
X107897068Y-83774825D02*
X107858972Y-83698635D01*
X107858972Y-83698635D02*
X107782782Y-83660539D01*
X107782782Y-83660539D02*
X107668496Y-83660539D01*
X107668496Y-83660539D02*
X107592306Y-83698635D01*
X107325639Y-83660539D02*
X107020877Y-83660539D01*
X107211353Y-83393873D02*
X107211353Y-84079587D01*
X107211353Y-84079587D02*
X107173258Y-84155778D01*
X107173258Y-84155778D02*
X107097068Y-84193873D01*
X107097068Y-84193873D02*
X107020877Y-84193873D01*
X106411353Y-84193873D02*
X106411353Y-83774825D01*
X106411353Y-83774825D02*
X106449448Y-83698635D01*
X106449448Y-83698635D02*
X106525639Y-83660539D01*
X106525639Y-83660539D02*
X106678020Y-83660539D01*
X106678020Y-83660539D02*
X106754210Y-83698635D01*
X106411353Y-84155778D02*
X106487544Y-84193873D01*
X106487544Y-84193873D02*
X106678020Y-84193873D01*
X106678020Y-84193873D02*
X106754210Y-84155778D01*
X106754210Y-84155778D02*
X106792306Y-84079587D01*
X106792306Y-84079587D02*
X106792306Y-84003397D01*
X106792306Y-84003397D02*
X106754210Y-83927206D01*
X106754210Y-83927206D02*
X106678020Y-83889111D01*
X106678020Y-83889111D02*
X106487544Y-83889111D01*
X106487544Y-83889111D02*
X106411353Y-83851016D01*
X105916115Y-84193873D02*
X105992305Y-84155778D01*
X105992305Y-84155778D02*
X106030400Y-84079587D01*
X106030400Y-84079587D02*
X106030400Y-83393873D01*
X105497067Y-84193873D02*
X105573257Y-84155778D01*
X105573257Y-84155778D02*
X105611352Y-84079587D01*
X105611352Y-84079587D02*
X105611352Y-83393873D01*
X105192304Y-84193873D02*
X105192304Y-83660539D01*
X105192304Y-83393873D02*
X105230400Y-83431968D01*
X105230400Y-83431968D02*
X105192304Y-83470063D01*
X105192304Y-83470063D02*
X105154209Y-83431968D01*
X105154209Y-83431968D02*
X105192304Y-83393873D01*
X105192304Y-83393873D02*
X105192304Y-83470063D01*
X104811352Y-83660539D02*
X104811352Y-84193873D01*
X104811352Y-83736730D02*
X104773257Y-83698635D01*
X104773257Y-83698635D02*
X104697067Y-83660539D01*
X104697067Y-83660539D02*
X104582781Y-83660539D01*
X104582781Y-83660539D02*
X104506590Y-83698635D01*
X104506590Y-83698635D02*
X104468495Y-83774825D01*
X104468495Y-83774825D02*
X104468495Y-84193873D01*
X103744685Y-83660539D02*
X103744685Y-84308158D01*
X103744685Y-84308158D02*
X103782780Y-84384349D01*
X103782780Y-84384349D02*
X103820876Y-84422444D01*
X103820876Y-84422444D02*
X103897066Y-84460539D01*
X103897066Y-84460539D02*
X104011352Y-84460539D01*
X104011352Y-84460539D02*
X104087542Y-84422444D01*
X103744685Y-84155778D02*
X103820876Y-84193873D01*
X103820876Y-84193873D02*
X103973257Y-84193873D01*
X103973257Y-84193873D02*
X104049447Y-84155778D01*
X104049447Y-84155778D02*
X104087542Y-84117682D01*
X104087542Y-84117682D02*
X104125638Y-84041492D01*
X104125638Y-84041492D02*
X104125638Y-83812920D01*
X104125638Y-83812920D02*
X104087542Y-83736730D01*
X104087542Y-83736730D02*
X104049447Y-83698635D01*
X104049447Y-83698635D02*
X103973257Y-83660539D01*
X103973257Y-83660539D02*
X103820876Y-83660539D01*
X103820876Y-83660539D02*
X103744685Y-83698635D01*
X102754208Y-83393873D02*
X102754208Y-84041492D01*
X102754208Y-84041492D02*
X102716113Y-84117682D01*
X102716113Y-84117682D02*
X102678018Y-84155778D01*
X102678018Y-84155778D02*
X102601827Y-84193873D01*
X102601827Y-84193873D02*
X102449446Y-84193873D01*
X102449446Y-84193873D02*
X102373256Y-84155778D01*
X102373256Y-84155778D02*
X102335161Y-84117682D01*
X102335161Y-84117682D02*
X102297065Y-84041492D01*
X102297065Y-84041492D02*
X102297065Y-83393873D01*
X101573256Y-83660539D02*
X101573256Y-84193873D01*
X101763732Y-83355778D02*
X101954209Y-83927206D01*
X101954209Y-83927206D02*
X101458970Y-83927206D01*
X75285918Y-96014217D02*
X75285918Y-95633265D01*
X75285918Y-95633265D02*
X74485918Y-95633265D01*
X75285918Y-96280884D02*
X74752584Y-96280884D01*
X74485918Y-96280884D02*
X74524013Y-96242788D01*
X74524013Y-96242788D02*
X74562108Y-96280884D01*
X74562108Y-96280884D02*
X74524013Y-96318979D01*
X74524013Y-96318979D02*
X74485918Y-96280884D01*
X74485918Y-96280884D02*
X74562108Y-96280884D01*
X74752584Y-96661836D02*
X75285918Y-96661836D01*
X74828775Y-96661836D02*
X74790680Y-96699931D01*
X74790680Y-96699931D02*
X74752584Y-96776121D01*
X74752584Y-96776121D02*
X74752584Y-96890407D01*
X74752584Y-96890407D02*
X74790680Y-96966598D01*
X74790680Y-96966598D02*
X74866870Y-97004693D01*
X74866870Y-97004693D02*
X75285918Y-97004693D01*
X75285918Y-97385646D02*
X74485918Y-97385646D01*
X74981156Y-97461836D02*
X75285918Y-97690408D01*
X74752584Y-97690408D02*
X75057346Y-97385646D01*
X74485918Y-98871360D02*
X75057346Y-98871360D01*
X75057346Y-98871360D02*
X75171632Y-98833265D01*
X75171632Y-98833265D02*
X75247823Y-98757074D01*
X75247823Y-98757074D02*
X75285918Y-98642789D01*
X75285918Y-98642789D02*
X75285918Y-98566598D01*
X75285918Y-99252313D02*
X74485918Y-99252313D01*
X74485918Y-99252313D02*
X74485918Y-99557075D01*
X74485918Y-99557075D02*
X74524013Y-99633265D01*
X74524013Y-99633265D02*
X74562108Y-99671360D01*
X74562108Y-99671360D02*
X74638299Y-99709456D01*
X74638299Y-99709456D02*
X74752584Y-99709456D01*
X74752584Y-99709456D02*
X74828775Y-99671360D01*
X74828775Y-99671360D02*
X74866870Y-99633265D01*
X74866870Y-99633265D02*
X74904965Y-99557075D01*
X74904965Y-99557075D02*
X74904965Y-99252313D01*
X74562108Y-100014217D02*
X74524013Y-100052313D01*
X74524013Y-100052313D02*
X74485918Y-100128503D01*
X74485918Y-100128503D02*
X74485918Y-100318979D01*
X74485918Y-100318979D02*
X74524013Y-100395170D01*
X74524013Y-100395170D02*
X74562108Y-100433265D01*
X74562108Y-100433265D02*
X74638299Y-100471360D01*
X74638299Y-100471360D02*
X74714489Y-100471360D01*
X74714489Y-100471360D02*
X74828775Y-100433265D01*
X74828775Y-100433265D02*
X75285918Y-99976122D01*
X75285918Y-99976122D02*
X75285918Y-100471360D01*
X75285918Y-101423742D02*
X74752584Y-101423742D01*
X74485918Y-101423742D02*
X74524013Y-101385646D01*
X74524013Y-101385646D02*
X74562108Y-101423742D01*
X74562108Y-101423742D02*
X74524013Y-101461837D01*
X74524013Y-101461837D02*
X74485918Y-101423742D01*
X74485918Y-101423742D02*
X74562108Y-101423742D01*
X74752584Y-101690408D02*
X74752584Y-101995170D01*
X75285918Y-101804694D02*
X74600203Y-101804694D01*
X74600203Y-101804694D02*
X74524013Y-101842789D01*
X74524013Y-101842789D02*
X74485918Y-101918979D01*
X74485918Y-101918979D02*
X74485918Y-101995170D01*
X74752584Y-102871361D02*
X75285918Y-102871361D01*
X74828775Y-102871361D02*
X74790680Y-102909456D01*
X74790680Y-102909456D02*
X74752584Y-102985646D01*
X74752584Y-102985646D02*
X74752584Y-103099932D01*
X74752584Y-103099932D02*
X74790680Y-103176123D01*
X74790680Y-103176123D02*
X74866870Y-103214218D01*
X74866870Y-103214218D02*
X75285918Y-103214218D01*
X75285918Y-103709456D02*
X75247823Y-103633266D01*
X75247823Y-103633266D02*
X75209727Y-103595171D01*
X75209727Y-103595171D02*
X75133537Y-103557075D01*
X75133537Y-103557075D02*
X74904965Y-103557075D01*
X74904965Y-103557075D02*
X74828775Y-103595171D01*
X74828775Y-103595171D02*
X74790680Y-103633266D01*
X74790680Y-103633266D02*
X74752584Y-103709456D01*
X74752584Y-103709456D02*
X74752584Y-103823742D01*
X74752584Y-103823742D02*
X74790680Y-103899933D01*
X74790680Y-103899933D02*
X74828775Y-103938028D01*
X74828775Y-103938028D02*
X74904965Y-103976123D01*
X74904965Y-103976123D02*
X75133537Y-103976123D01*
X75133537Y-103976123D02*
X75209727Y-103938028D01*
X75209727Y-103938028D02*
X75247823Y-103899933D01*
X75247823Y-103899933D02*
X75285918Y-103823742D01*
X75285918Y-103823742D02*
X75285918Y-103709456D01*
X74752584Y-104204695D02*
X74752584Y-104509457D01*
X74485918Y-104318981D02*
X75171632Y-104318981D01*
X75171632Y-104318981D02*
X75247823Y-104357076D01*
X75247823Y-104357076D02*
X75285918Y-104433266D01*
X75285918Y-104433266D02*
X75285918Y-104509457D01*
X76573873Y-95633265D02*
X76040539Y-95633265D01*
X75773873Y-95633265D02*
X75811968Y-95595169D01*
X75811968Y-95595169D02*
X75850063Y-95633265D01*
X75850063Y-95633265D02*
X75811968Y-95671360D01*
X75811968Y-95671360D02*
X75773873Y-95633265D01*
X75773873Y-95633265D02*
X75850063Y-95633265D01*
X76040539Y-96014217D02*
X76573873Y-96014217D01*
X76116730Y-96014217D02*
X76078635Y-96052312D01*
X76078635Y-96052312D02*
X76040539Y-96128502D01*
X76040539Y-96128502D02*
X76040539Y-96242788D01*
X76040539Y-96242788D02*
X76078635Y-96318979D01*
X76078635Y-96318979D02*
X76154825Y-96357074D01*
X76154825Y-96357074D02*
X76573873Y-96357074D01*
X76535778Y-96699931D02*
X76573873Y-96776122D01*
X76573873Y-96776122D02*
X76573873Y-96928503D01*
X76573873Y-96928503D02*
X76535778Y-97004693D01*
X76535778Y-97004693D02*
X76459587Y-97042789D01*
X76459587Y-97042789D02*
X76421492Y-97042789D01*
X76421492Y-97042789D02*
X76345301Y-97004693D01*
X76345301Y-97004693D02*
X76307206Y-96928503D01*
X76307206Y-96928503D02*
X76307206Y-96814217D01*
X76307206Y-96814217D02*
X76269111Y-96738027D01*
X76269111Y-96738027D02*
X76192920Y-96699931D01*
X76192920Y-96699931D02*
X76154825Y-96699931D01*
X76154825Y-96699931D02*
X76078635Y-96738027D01*
X76078635Y-96738027D02*
X76040539Y-96814217D01*
X76040539Y-96814217D02*
X76040539Y-96928503D01*
X76040539Y-96928503D02*
X76078635Y-97004693D01*
X76040539Y-97271360D02*
X76040539Y-97576122D01*
X75773873Y-97385646D02*
X76459587Y-97385646D01*
X76459587Y-97385646D02*
X76535778Y-97423741D01*
X76535778Y-97423741D02*
X76573873Y-97499931D01*
X76573873Y-97499931D02*
X76573873Y-97576122D01*
X76573873Y-98185646D02*
X76154825Y-98185646D01*
X76154825Y-98185646D02*
X76078635Y-98147551D01*
X76078635Y-98147551D02*
X76040539Y-98071360D01*
X76040539Y-98071360D02*
X76040539Y-97918979D01*
X76040539Y-97918979D02*
X76078635Y-97842789D01*
X76535778Y-98185646D02*
X76573873Y-98109455D01*
X76573873Y-98109455D02*
X76573873Y-97918979D01*
X76573873Y-97918979D02*
X76535778Y-97842789D01*
X76535778Y-97842789D02*
X76459587Y-97804693D01*
X76459587Y-97804693D02*
X76383397Y-97804693D01*
X76383397Y-97804693D02*
X76307206Y-97842789D01*
X76307206Y-97842789D02*
X76269111Y-97918979D01*
X76269111Y-97918979D02*
X76269111Y-98109455D01*
X76269111Y-98109455D02*
X76231016Y-98185646D01*
X76573873Y-98680884D02*
X76535778Y-98604694D01*
X76535778Y-98604694D02*
X76459587Y-98566599D01*
X76459587Y-98566599D02*
X75773873Y-98566599D01*
X76573873Y-99099932D02*
X76535778Y-99023742D01*
X76535778Y-99023742D02*
X76459587Y-98985647D01*
X76459587Y-98985647D02*
X75773873Y-98985647D01*
X76573873Y-99404695D02*
X76040539Y-99404695D01*
X75773873Y-99404695D02*
X75811968Y-99366599D01*
X75811968Y-99366599D02*
X75850063Y-99404695D01*
X75850063Y-99404695D02*
X75811968Y-99442790D01*
X75811968Y-99442790D02*
X75773873Y-99404695D01*
X75773873Y-99404695D02*
X75850063Y-99404695D01*
X76040539Y-99785647D02*
X76573873Y-99785647D01*
X76116730Y-99785647D02*
X76078635Y-99823742D01*
X76078635Y-99823742D02*
X76040539Y-99899932D01*
X76040539Y-99899932D02*
X76040539Y-100014218D01*
X76040539Y-100014218D02*
X76078635Y-100090409D01*
X76078635Y-100090409D02*
X76154825Y-100128504D01*
X76154825Y-100128504D02*
X76573873Y-100128504D01*
X76040539Y-100852314D02*
X76688158Y-100852314D01*
X76688158Y-100852314D02*
X76764349Y-100814219D01*
X76764349Y-100814219D02*
X76802444Y-100776123D01*
X76802444Y-100776123D02*
X76840539Y-100699933D01*
X76840539Y-100699933D02*
X76840539Y-100585647D01*
X76840539Y-100585647D02*
X76802444Y-100509457D01*
X76535778Y-100852314D02*
X76573873Y-100776123D01*
X76573873Y-100776123D02*
X76573873Y-100623742D01*
X76573873Y-100623742D02*
X76535778Y-100547552D01*
X76535778Y-100547552D02*
X76497682Y-100509457D01*
X76497682Y-100509457D02*
X76421492Y-100471361D01*
X76421492Y-100471361D02*
X76192920Y-100471361D01*
X76192920Y-100471361D02*
X76116730Y-100509457D01*
X76116730Y-100509457D02*
X76078635Y-100547552D01*
X76078635Y-100547552D02*
X76040539Y-100623742D01*
X76040539Y-100623742D02*
X76040539Y-100776123D01*
X76040539Y-100776123D02*
X76078635Y-100852314D01*
X76573873Y-101842791D02*
X75773873Y-101842791D01*
X76573873Y-102299934D02*
X76116730Y-101957076D01*
X75773873Y-102299934D02*
X76231016Y-101842791D01*
X76573873Y-103061838D02*
X76573873Y-102604695D01*
X76573873Y-102833267D02*
X75773873Y-102833267D01*
X75773873Y-102833267D02*
X75888158Y-102757076D01*
X75888158Y-102757076D02*
X75964349Y-102680886D01*
X75964349Y-102680886D02*
X76002444Y-102604695D01*
D10*
X80073548Y-56588866D02*
X80835453Y-56588866D01*
X74104548Y-56588866D02*
X74866453Y-56588866D01*
X74485500Y-56969819D02*
X74485500Y-56207914D01*
D11*
X76231666Y-105736895D02*
X76231666Y-106308323D01*
X76231666Y-106308323D02*
X76269761Y-106422609D01*
X76269761Y-106422609D02*
X76345952Y-106498800D01*
X76345952Y-106498800D02*
X76460237Y-106536895D01*
X76460237Y-106536895D02*
X76536428Y-106536895D01*
X75850713Y-106536895D02*
X75850713Y-105736895D01*
X75850713Y-105736895D02*
X75545951Y-105736895D01*
X75545951Y-105736895D02*
X75469761Y-105774990D01*
X75469761Y-105774990D02*
X75431666Y-105813085D01*
X75431666Y-105813085D02*
X75393570Y-105889276D01*
X75393570Y-105889276D02*
X75393570Y-106003561D01*
X75393570Y-106003561D02*
X75431666Y-106079752D01*
X75431666Y-106079752D02*
X75469761Y-106117847D01*
X75469761Y-106117847D02*
X75545951Y-106155942D01*
X75545951Y-106155942D02*
X75850713Y-106155942D01*
X75088809Y-105813085D02*
X75050713Y-105774990D01*
X75050713Y-105774990D02*
X74974523Y-105736895D01*
X74974523Y-105736895D02*
X74784047Y-105736895D01*
X74784047Y-105736895D02*
X74707856Y-105774990D01*
X74707856Y-105774990D02*
X74669761Y-105813085D01*
X74669761Y-105813085D02*
X74631666Y-105889276D01*
X74631666Y-105889276D02*
X74631666Y-105965466D01*
X74631666Y-105965466D02*
X74669761Y-106079752D01*
X74669761Y-106079752D02*
X75126904Y-106536895D01*
X75126904Y-106536895D02*
X74631666Y-106536895D01*
X73605847Y-106794523D02*
X73643942Y-106908809D01*
X73643942Y-106908809D02*
X73682038Y-106946904D01*
X73682038Y-106946904D02*
X73758228Y-106985000D01*
X73758228Y-106985000D02*
X73872514Y-106985000D01*
X73872514Y-106985000D02*
X73948704Y-106946904D01*
X73948704Y-106946904D02*
X73986800Y-106908809D01*
X73986800Y-106908809D02*
X74024895Y-106832619D01*
X74024895Y-106832619D02*
X74024895Y-106527857D01*
X74024895Y-106527857D02*
X73224895Y-106527857D01*
X73224895Y-106527857D02*
X73224895Y-106794523D01*
X73224895Y-106794523D02*
X73262990Y-106870714D01*
X73262990Y-106870714D02*
X73301085Y-106908809D01*
X73301085Y-106908809D02*
X73377276Y-106946904D01*
X73377276Y-106946904D02*
X73453466Y-106946904D01*
X73453466Y-106946904D02*
X73529657Y-106908809D01*
X73529657Y-106908809D02*
X73567752Y-106870714D01*
X73567752Y-106870714D02*
X73605847Y-106794523D01*
X73605847Y-106794523D02*
X73605847Y-106527857D01*
X73643942Y-107480238D02*
X74024895Y-107480238D01*
X73224895Y-107213571D02*
X73643942Y-107480238D01*
X73643942Y-107480238D02*
X73224895Y-107746904D01*
X74024895Y-108013571D02*
X73224895Y-108013571D01*
X73224895Y-108013571D02*
X73224895Y-108318333D01*
X73224895Y-108318333D02*
X73262990Y-108394523D01*
X73262990Y-108394523D02*
X73301085Y-108432618D01*
X73301085Y-108432618D02*
X73377276Y-108470714D01*
X73377276Y-108470714D02*
X73491561Y-108470714D01*
X73491561Y-108470714D02*
X73567752Y-108432618D01*
X73567752Y-108432618D02*
X73605847Y-108394523D01*
X73605847Y-108394523D02*
X73643942Y-108318333D01*
X73643942Y-108318333D02*
X73643942Y-108013571D01*
X73796323Y-108775475D02*
X73796323Y-109156428D01*
X74024895Y-108699285D02*
X73224895Y-108965952D01*
X73224895Y-108965952D02*
X74024895Y-109232618D01*
X73986800Y-109461189D02*
X74024895Y-109575475D01*
X74024895Y-109575475D02*
X74024895Y-109765951D01*
X74024895Y-109765951D02*
X73986800Y-109842142D01*
X73986800Y-109842142D02*
X73948704Y-109880237D01*
X73948704Y-109880237D02*
X73872514Y-109918332D01*
X73872514Y-109918332D02*
X73796323Y-109918332D01*
X73796323Y-109918332D02*
X73720133Y-109880237D01*
X73720133Y-109880237D02*
X73682038Y-109842142D01*
X73682038Y-109842142D02*
X73643942Y-109765951D01*
X73643942Y-109765951D02*
X73605847Y-109613570D01*
X73605847Y-109613570D02*
X73567752Y-109537380D01*
X73567752Y-109537380D02*
X73529657Y-109499285D01*
X73529657Y-109499285D02*
X73453466Y-109461189D01*
X73453466Y-109461189D02*
X73377276Y-109461189D01*
X73377276Y-109461189D02*
X73301085Y-109499285D01*
X73301085Y-109499285D02*
X73262990Y-109537380D01*
X73262990Y-109537380D02*
X73224895Y-109613570D01*
X73224895Y-109613570D02*
X73224895Y-109804047D01*
X73224895Y-109804047D02*
X73262990Y-109918332D01*
X73986800Y-110223094D02*
X74024895Y-110337380D01*
X74024895Y-110337380D02*
X74024895Y-110527856D01*
X74024895Y-110527856D02*
X73986800Y-110604047D01*
X73986800Y-110604047D02*
X73948704Y-110642142D01*
X73948704Y-110642142D02*
X73872514Y-110680237D01*
X73872514Y-110680237D02*
X73796323Y-110680237D01*
X73796323Y-110680237D02*
X73720133Y-110642142D01*
X73720133Y-110642142D02*
X73682038Y-110604047D01*
X73682038Y-110604047D02*
X73643942Y-110527856D01*
X73643942Y-110527856D02*
X73605847Y-110375475D01*
X73605847Y-110375475D02*
X73567752Y-110299285D01*
X73567752Y-110299285D02*
X73529657Y-110261190D01*
X73529657Y-110261190D02*
X73453466Y-110223094D01*
X73453466Y-110223094D02*
X73377276Y-110223094D01*
X73377276Y-110223094D02*
X73301085Y-110261190D01*
X73301085Y-110261190D02*
X73262990Y-110299285D01*
X73262990Y-110299285D02*
X73224895Y-110375475D01*
X73224895Y-110375475D02*
X73224895Y-110565952D01*
X73224895Y-110565952D02*
X73262990Y-110680237D01*
X98202619Y-80717895D02*
X98202619Y-81289323D01*
X98202619Y-81289323D02*
X98240714Y-81403609D01*
X98240714Y-81403609D02*
X98316905Y-81479800D01*
X98316905Y-81479800D02*
X98431190Y-81517895D01*
X98431190Y-81517895D02*
X98507381Y-81517895D01*
X97821666Y-81517895D02*
X97821666Y-80717895D01*
X97821666Y-80717895D02*
X97516904Y-80717895D01*
X97516904Y-80717895D02*
X97440714Y-80755990D01*
X97440714Y-80755990D02*
X97402619Y-80794085D01*
X97402619Y-80794085D02*
X97364523Y-80870276D01*
X97364523Y-80870276D02*
X97364523Y-80984561D01*
X97364523Y-80984561D02*
X97402619Y-81060752D01*
X97402619Y-81060752D02*
X97440714Y-81098847D01*
X97440714Y-81098847D02*
X97516904Y-81136942D01*
X97516904Y-81136942D02*
X97821666Y-81136942D01*
X96602619Y-81517895D02*
X97059762Y-81517895D01*
X96831190Y-81517895D02*
X96831190Y-80717895D01*
X96831190Y-80717895D02*
X96907381Y-80832180D01*
X96907381Y-80832180D02*
X96983571Y-80908371D01*
X96983571Y-80908371D02*
X97059762Y-80946466D01*
X96335952Y-80717895D02*
X95840714Y-80717895D01*
X95840714Y-80717895D02*
X96107380Y-81022657D01*
X96107380Y-81022657D02*
X95993095Y-81022657D01*
X95993095Y-81022657D02*
X95916904Y-81060752D01*
X95916904Y-81060752D02*
X95878809Y-81098847D01*
X95878809Y-81098847D02*
X95840714Y-81175038D01*
X95840714Y-81175038D02*
X95840714Y-81365514D01*
X95840714Y-81365514D02*
X95878809Y-81441704D01*
X95878809Y-81441704D02*
X95916904Y-81479800D01*
X95916904Y-81479800D02*
X95993095Y-81517895D01*
X95993095Y-81517895D02*
X96221666Y-81517895D01*
X96221666Y-81517895D02*
X96297857Y-81479800D01*
X96297857Y-81479800D02*
X96335952Y-81441704D01*
X94814847Y-80759523D02*
X94852942Y-80873809D01*
X94852942Y-80873809D02*
X94891038Y-80911904D01*
X94891038Y-80911904D02*
X94967228Y-80950000D01*
X94967228Y-80950000D02*
X95081514Y-80950000D01*
X95081514Y-80950000D02*
X95157704Y-80911904D01*
X95157704Y-80911904D02*
X95195800Y-80873809D01*
X95195800Y-80873809D02*
X95233895Y-80797619D01*
X95233895Y-80797619D02*
X95233895Y-80492857D01*
X95233895Y-80492857D02*
X94433895Y-80492857D01*
X94433895Y-80492857D02*
X94433895Y-80759523D01*
X94433895Y-80759523D02*
X94471990Y-80835714D01*
X94471990Y-80835714D02*
X94510085Y-80873809D01*
X94510085Y-80873809D02*
X94586276Y-80911904D01*
X94586276Y-80911904D02*
X94662466Y-80911904D01*
X94662466Y-80911904D02*
X94738657Y-80873809D01*
X94738657Y-80873809D02*
X94776752Y-80835714D01*
X94776752Y-80835714D02*
X94814847Y-80759523D01*
X94814847Y-80759523D02*
X94814847Y-80492857D01*
X94852942Y-81445238D02*
X95233895Y-81445238D01*
X94433895Y-81178571D02*
X94852942Y-81445238D01*
X94852942Y-81445238D02*
X94433895Y-81711904D01*
X95233895Y-81978571D02*
X94433895Y-81978571D01*
X94433895Y-81978571D02*
X94433895Y-82283333D01*
X94433895Y-82283333D02*
X94471990Y-82359523D01*
X94471990Y-82359523D02*
X94510085Y-82397618D01*
X94510085Y-82397618D02*
X94586276Y-82435714D01*
X94586276Y-82435714D02*
X94700561Y-82435714D01*
X94700561Y-82435714D02*
X94776752Y-82397618D01*
X94776752Y-82397618D02*
X94814847Y-82359523D01*
X94814847Y-82359523D02*
X94852942Y-82283333D01*
X94852942Y-82283333D02*
X94852942Y-81978571D01*
X95005323Y-82740475D02*
X95005323Y-83121428D01*
X95233895Y-82664285D02*
X94433895Y-82930952D01*
X94433895Y-82930952D02*
X95233895Y-83197618D01*
X95195800Y-83426189D02*
X95233895Y-83540475D01*
X95233895Y-83540475D02*
X95233895Y-83730951D01*
X95233895Y-83730951D02*
X95195800Y-83807142D01*
X95195800Y-83807142D02*
X95157704Y-83845237D01*
X95157704Y-83845237D02*
X95081514Y-83883332D01*
X95081514Y-83883332D02*
X95005323Y-83883332D01*
X95005323Y-83883332D02*
X94929133Y-83845237D01*
X94929133Y-83845237D02*
X94891038Y-83807142D01*
X94891038Y-83807142D02*
X94852942Y-83730951D01*
X94852942Y-83730951D02*
X94814847Y-83578570D01*
X94814847Y-83578570D02*
X94776752Y-83502380D01*
X94776752Y-83502380D02*
X94738657Y-83464285D01*
X94738657Y-83464285D02*
X94662466Y-83426189D01*
X94662466Y-83426189D02*
X94586276Y-83426189D01*
X94586276Y-83426189D02*
X94510085Y-83464285D01*
X94510085Y-83464285D02*
X94471990Y-83502380D01*
X94471990Y-83502380D02*
X94433895Y-83578570D01*
X94433895Y-83578570D02*
X94433895Y-83769047D01*
X94433895Y-83769047D02*
X94471990Y-83883332D01*
X95195800Y-84188094D02*
X95233895Y-84302380D01*
X95233895Y-84302380D02*
X95233895Y-84492856D01*
X95233895Y-84492856D02*
X95195800Y-84569047D01*
X95195800Y-84569047D02*
X95157704Y-84607142D01*
X95157704Y-84607142D02*
X95081514Y-84645237D01*
X95081514Y-84645237D02*
X95005323Y-84645237D01*
X95005323Y-84645237D02*
X94929133Y-84607142D01*
X94929133Y-84607142D02*
X94891038Y-84569047D01*
X94891038Y-84569047D02*
X94852942Y-84492856D01*
X94852942Y-84492856D02*
X94814847Y-84340475D01*
X94814847Y-84340475D02*
X94776752Y-84264285D01*
X94776752Y-84264285D02*
X94738657Y-84226190D01*
X94738657Y-84226190D02*
X94662466Y-84188094D01*
X94662466Y-84188094D02*
X94586276Y-84188094D01*
X94586276Y-84188094D02*
X94510085Y-84226190D01*
X94510085Y-84226190D02*
X94471990Y-84264285D01*
X94471990Y-84264285D02*
X94433895Y-84340475D01*
X94433895Y-84340475D02*
X94433895Y-84530952D01*
X94433895Y-84530952D02*
X94471990Y-84645237D01*
D10*
X81379500Y-56578500D02*
G75*
G02*
X79529500Y-56578500I-925000J0D01*
G01*
X79529500Y-56578500D02*
G75*
G02*
X81379500Y-56578500I925000J0D01*
G01*
D12*
X77645000Y-56578500D02*
G75*
G02*
X77295000Y-56578500I-175000J0D01*
G01*
X77295000Y-56578500D02*
G75*
G02*
X77645000Y-56578500I175000J0D01*
G01*
D10*
X75410500Y-56578500D02*
G75*
G02*
X73560500Y-56578500I-925000J0D01*
G01*
X73560500Y-56578500D02*
G75*
G02*
X75410500Y-56578500I925000J0D01*
G01*
X76720000Y-55903500D02*
G75*
G02*
X76795000Y-57328500I750000J-675000D01*
G01*
X78538500Y-56578500D02*
X79438500Y-56578500D01*
X77470000Y-56578500D02*
X75470000Y-56578500D01*
D13*
X144399000Y-95758000D02*
X140391864Y-95758000D01*
X140430250Y-95091250D01*
X141747875Y-95074086D01*
X143065500Y-95056923D01*
X143065500Y-91122500D01*
X144399000Y-91122500D01*
X144399000Y-95758000D01*
G36*
X144399000Y-95758000D02*
G01*
X140391864Y-95758000D01*
X140430250Y-95091250D01*
X141747875Y-95074086D01*
X143065500Y-95056923D01*
X143065500Y-91122500D01*
X144399000Y-91122500D01*
X144399000Y-95758000D01*
G37*
X139890500Y-100647500D02*
X136080500Y-100647500D01*
X136080500Y-100266500D01*
X138620500Y-100266500D01*
X138620500Y-99060000D01*
X137350500Y-99060000D01*
X137350500Y-98361500D01*
X138620500Y-98361500D01*
X138620500Y-97155000D01*
X136080500Y-97155000D01*
X136080500Y-96520000D01*
X139890500Y-96520000D01*
X139890500Y-100647500D01*
G36*
X139890500Y-100647500D02*
G01*
X136080500Y-100647500D01*
X136080500Y-100266500D01*
X138620500Y-100266500D01*
X138620500Y-99060000D01*
X137350500Y-99060000D01*
X137350500Y-98361500D01*
X138620500Y-98361500D01*
X138620500Y-97155000D01*
X136080500Y-97155000D01*
X136080500Y-96520000D01*
X139890500Y-96520000D01*
X139890500Y-100647500D01*
G37*
X146431000Y-95059500D02*
X147701000Y-95059500D01*
X147701000Y-91122500D01*
X149034500Y-91122500D01*
X149034500Y-95123000D01*
X148399500Y-95123000D01*
X148399500Y-95758000D01*
X145732500Y-95758000D01*
X145732500Y-95129636D01*
X145065750Y-95091250D01*
X145065750Y-91154250D01*
X145748375Y-91136226D01*
X146431000Y-91118204D01*
X146431000Y-95059500D01*
G36*
X146431000Y-95059500D02*
G01*
X147701000Y-95059500D01*
X147701000Y-91122500D01*
X149034500Y-91122500D01*
X149034500Y-95123000D01*
X148399500Y-95123000D01*
X148399500Y-95758000D01*
X145732500Y-95758000D01*
X145732500Y-95129636D01*
X145065750Y-95091250D01*
X145065750Y-91154250D01*
X145748375Y-91136226D01*
X146431000Y-91118204D01*
X146431000Y-95059500D01*
G37*
X132524500Y-93091000D02*
X133794500Y-93091000D01*
X133794500Y-91122500D01*
X135128000Y-91122500D01*
X135128000Y-93154500D01*
X134493000Y-93154500D01*
X134493000Y-93789500D01*
X133858000Y-93789500D01*
X133858000Y-95758000D01*
X132461000Y-95758000D01*
X132461000Y-93789500D01*
X131826000Y-93789500D01*
X131826000Y-93161136D01*
X131159250Y-93122750D01*
X131159250Y-91154250D01*
X131841875Y-91136226D01*
X132524500Y-91118204D01*
X132524500Y-93091000D01*
G36*
X132524500Y-93091000D02*
G01*
X133794500Y-93091000D01*
X133794500Y-91122500D01*
X135128000Y-91122500D01*
X135128000Y-93154500D01*
X134493000Y-93154500D01*
X134493000Y-93789500D01*
X133858000Y-93789500D01*
X133858000Y-95758000D01*
X132461000Y-95758000D01*
X132461000Y-93789500D01*
X131826000Y-93789500D01*
X131826000Y-93161136D01*
X131159250Y-93122750D01*
X131159250Y-91154250D01*
X131841875Y-91136226D01*
X132524500Y-91118204D01*
X132524500Y-93091000D01*
G37*
X132397500Y-97084541D02*
X132699125Y-97103895D01*
X133000750Y-97123250D01*
X133020105Y-97424875D01*
X133039459Y-97726499D01*
X133318250Y-97726500D01*
X133597042Y-97726500D01*
X133635750Y-97123250D01*
X133937375Y-97103895D01*
X134239000Y-97084541D01*
X134239000Y-96520000D01*
X135509000Y-96520000D01*
X135509000Y-100647500D01*
X134239000Y-100647500D01*
X134239000Y-98425000D01*
X133674459Y-98425000D01*
X133655105Y-98726625D01*
X133635750Y-99028250D01*
X132969000Y-99066636D01*
X132969000Y-98425000D01*
X132397500Y-98425000D01*
X132397500Y-100647500D01*
X131127500Y-100647500D01*
X131127500Y-96520000D01*
X132397500Y-96520000D01*
X132397500Y-97084541D01*
G36*
X132397500Y-97084541D02*
G01*
X132699125Y-97103895D01*
X133000750Y-97123250D01*
X133020105Y-97424875D01*
X133039459Y-97726499D01*
X133318250Y-97726500D01*
X133597042Y-97726500D01*
X133635750Y-97123250D01*
X133937375Y-97103895D01*
X134239000Y-97084541D01*
X134239000Y-96520000D01*
X135509000Y-96520000D01*
X135509000Y-100647500D01*
X134239000Y-100647500D01*
X134239000Y-98425000D01*
X133674459Y-98425000D01*
X133655105Y-98726625D01*
X133635750Y-99028250D01*
X132969000Y-99066636D01*
X132969000Y-98425000D01*
X132397500Y-98425000D01*
X132397500Y-100647500D01*
X131127500Y-100647500D01*
X131127500Y-96520000D01*
X132397500Y-96520000D01*
X132397500Y-97084541D01*
G37*
X150558500Y-97084541D02*
X150860125Y-97103895D01*
X151161750Y-97123250D01*
X151181105Y-97424875D01*
X151200459Y-97726499D01*
X151479250Y-97726500D01*
X151758042Y-97726500D01*
X151796750Y-97123250D01*
X152098375Y-97103895D01*
X152400001Y-97084541D01*
X152400000Y-96802270D01*
X152400000Y-96520000D01*
X153670000Y-96520000D01*
X153670000Y-100647500D01*
X152400000Y-100647500D01*
X152400000Y-98425000D01*
X151835459Y-98425000D01*
X151816105Y-98726625D01*
X151796750Y-99028250D01*
X151130000Y-99066636D01*
X151130000Y-98425000D01*
X150558500Y-98425000D01*
X150558500Y-100647500D01*
X149288500Y-100647500D01*
X149288500Y-96520000D01*
X150558500Y-96520000D01*
X150558500Y-97084541D01*
G36*
X150558500Y-97084541D02*
G01*
X150860125Y-97103895D01*
X151161750Y-97123250D01*
X151181105Y-97424875D01*
X151200459Y-97726499D01*
X151479250Y-97726500D01*
X151758042Y-97726500D01*
X151796750Y-97123250D01*
X152098375Y-97103895D01*
X152400001Y-97084541D01*
X152400000Y-96802270D01*
X152400000Y-96520000D01*
X153670000Y-96520000D01*
X153670000Y-100647500D01*
X152400000Y-100647500D01*
X152400000Y-98425000D01*
X151835459Y-98425000D01*
X151816105Y-98726625D01*
X151796750Y-99028250D01*
X151130000Y-99066636D01*
X151130000Y-98425000D01*
X150558500Y-98425000D01*
X150558500Y-100647500D01*
X149288500Y-100647500D01*
X149288500Y-96520000D01*
X150558500Y-96520000D01*
X150558500Y-97084541D01*
G37*
X148653500Y-100259541D02*
X148351875Y-100278895D01*
X148259147Y-100285792D01*
X148118841Y-100310860D01*
X148054419Y-100366041D01*
X148030158Y-100472875D01*
X148010065Y-100647500D01*
X145478500Y-100647500D01*
X145478500Y-100457000D01*
X145474854Y-100362267D01*
X145442347Y-100296026D01*
X145348261Y-100270622D01*
X145159891Y-100266500D01*
X144841282Y-100266500D01*
X144874907Y-97155000D01*
X146177000Y-97155000D01*
X146177000Y-100266500D01*
X147383500Y-100266500D01*
X147383500Y-97155000D01*
X146177000Y-97155000D01*
X144874907Y-97155000D01*
X144875250Y-97123250D01*
X145176875Y-97103895D01*
X145478500Y-97084541D01*
X145478500Y-96520000D01*
X148018500Y-96520000D01*
X148018500Y-97091500D01*
X148653500Y-97091500D01*
X148653500Y-97155000D01*
X148653500Y-100259541D01*
G36*
X148653500Y-100259541D02*
G01*
X148351875Y-100278895D01*
X148259147Y-100285792D01*
X148118841Y-100310860D01*
X148054419Y-100366041D01*
X148030158Y-100472875D01*
X148010065Y-100647500D01*
X145478500Y-100647500D01*
X145478500Y-100457000D01*
X145474854Y-100362267D01*
X145442347Y-100296026D01*
X145348261Y-100270622D01*
X145159891Y-100266500D01*
X144841282Y-100266500D01*
X144874907Y-97155000D01*
X146177000Y-97155000D01*
X146177000Y-100266500D01*
X147383500Y-100266500D01*
X147383500Y-97155000D01*
X146177000Y-97155000D01*
X144874907Y-97155000D01*
X144875250Y-97123250D01*
X145176875Y-97103895D01*
X145478500Y-97084541D01*
X145478500Y-96520000D01*
X148018500Y-96520000D01*
X148018500Y-97091500D01*
X148653500Y-97091500D01*
X148653500Y-97155000D01*
X148653500Y-100259541D01*
G37*
X153670000Y-93789500D02*
X153670000Y-95758000D01*
X150368000Y-95758000D01*
X150368000Y-95129636D01*
X149701250Y-95091250D01*
X149665058Y-93789500D01*
X150368000Y-93789500D01*
X151066500Y-93789500D01*
X151066500Y-95059500D01*
X152336500Y-95059500D01*
X152336500Y-93789500D01*
X151066500Y-93789500D01*
X150368000Y-93789500D01*
X150368000Y-93161136D01*
X149701250Y-93122750D01*
X149701250Y-91821000D01*
X151066500Y-91821000D01*
X151066500Y-93091000D01*
X152336500Y-93091000D01*
X152336500Y-91821000D01*
X151066500Y-91821000D01*
X149701250Y-91821000D01*
X149701250Y-91789250D01*
X150034625Y-91770056D01*
X150368001Y-91750863D01*
X150368000Y-91436681D01*
X150368000Y-91122500D01*
X153670000Y-91122500D01*
X153670000Y-91821000D01*
X153670000Y-93789500D01*
G36*
X153670000Y-93789500D02*
G01*
X153670000Y-95758000D01*
X150368000Y-95758000D01*
X150368000Y-95129636D01*
X149701250Y-95091250D01*
X149665058Y-93789500D01*
X150368000Y-93789500D01*
X151066500Y-93789500D01*
X151066500Y-95059500D01*
X152336500Y-95059500D01*
X152336500Y-93789500D01*
X151066500Y-93789500D01*
X150368000Y-93789500D01*
X150368000Y-93161136D01*
X149701250Y-93122750D01*
X149701250Y-91821000D01*
X151066500Y-91821000D01*
X151066500Y-93091000D01*
X152336500Y-93091000D01*
X152336500Y-91821000D01*
X151066500Y-91821000D01*
X149701250Y-91821000D01*
X149701250Y-91789250D01*
X150034625Y-91770056D01*
X150368001Y-91750863D01*
X150368000Y-91436681D01*
X150368000Y-91122500D01*
X153670000Y-91122500D01*
X153670000Y-91821000D01*
X153670000Y-93789500D01*
G37*
X144272000Y-100647500D02*
X141732000Y-100647500D01*
X141732000Y-100457000D01*
X141728435Y-100362926D01*
X141696178Y-100296252D01*
X141602453Y-100270661D01*
X141414500Y-100266500D01*
X141097000Y-100266500D01*
X141097000Y-99701958D01*
X140493750Y-99663250D01*
X140493750Y-97790000D01*
X141795500Y-97790000D01*
X141795500Y-99631500D01*
X142430500Y-99631500D01*
X142430500Y-100266500D01*
X143002000Y-100266500D01*
X143002000Y-97155000D01*
X142430500Y-97155000D01*
X142430500Y-97790000D01*
X141795500Y-97790000D01*
X140493750Y-97790000D01*
X140493750Y-97758250D01*
X140792033Y-97739032D01*
X141090315Y-97719814D01*
X141109533Y-97421532D01*
X141128750Y-97123250D01*
X141430375Y-97103895D01*
X141732000Y-97084541D01*
X141732000Y-96520000D01*
X144272000Y-96520000D01*
X144272000Y-97155000D01*
X144272000Y-100647500D01*
G36*
X144272000Y-100647500D02*
G01*
X141732000Y-100647500D01*
X141732000Y-100457000D01*
X141728435Y-100362926D01*
X141696178Y-100296252D01*
X141602453Y-100270661D01*
X141414500Y-100266500D01*
X141097000Y-100266500D01*
X141097000Y-99701958D01*
X140493750Y-99663250D01*
X140493750Y-97790000D01*
X141795500Y-97790000D01*
X141795500Y-99631500D01*
X142430500Y-99631500D01*
X142430500Y-100266500D01*
X143002000Y-100266500D01*
X143002000Y-97155000D01*
X142430500Y-97155000D01*
X142430500Y-97790000D01*
X141795500Y-97790000D01*
X140493750Y-97790000D01*
X140493750Y-97758250D01*
X140792033Y-97739032D01*
X141090315Y-97719814D01*
X141109533Y-97421532D01*
X141128750Y-97123250D01*
X141430375Y-97103895D01*
X141732000Y-97084541D01*
X141732000Y-96520000D01*
X144272000Y-96520000D01*
X144272000Y-97155000D01*
X144272000Y-100647500D01*
G37*
X137160000Y-91757500D02*
X137795000Y-91757500D01*
X137795000Y-92456000D01*
X138430000Y-92456000D01*
X138430000Y-91122500D01*
X139763500Y-91122500D01*
X139763500Y-95758000D01*
X138430000Y-95758000D01*
X138430000Y-94488000D01*
X137795000Y-94488000D01*
X137795000Y-95123000D01*
X137160000Y-95123000D01*
X137160000Y-95758000D01*
X135756364Y-95758000D01*
X135794750Y-95091250D01*
X136128125Y-95072056D01*
X136461500Y-95052863D01*
X136461500Y-94424500D01*
X137096500Y-94424500D01*
X137096500Y-93796136D01*
X137763250Y-93757750D01*
X137782605Y-93456125D01*
X137801959Y-93154499D01*
X137449230Y-93154499D01*
X137096500Y-93154500D01*
X137096500Y-92456000D01*
X136461500Y-92456000D01*
X136461500Y-91821000D01*
X135756364Y-91821000D01*
X135794750Y-91154250D01*
X136477375Y-91136226D01*
X137160000Y-91118204D01*
X137160000Y-91757500D01*
G36*
X137160000Y-91757500D02*
G01*
X137795000Y-91757500D01*
X137795000Y-92456000D01*
X138430000Y-92456000D01*
X138430000Y-91122500D01*
X139763500Y-91122500D01*
X139763500Y-95758000D01*
X138430000Y-95758000D01*
X138430000Y-94488000D01*
X137795000Y-94488000D01*
X137795000Y-95123000D01*
X137160000Y-95123000D01*
X137160000Y-95758000D01*
X135756364Y-95758000D01*
X135794750Y-95091250D01*
X136128125Y-95072056D01*
X136461500Y-95052863D01*
X136461500Y-94424500D01*
X137096500Y-94424500D01*
X137096500Y-93796136D01*
X137763250Y-93757750D01*
X137782605Y-93456125D01*
X137801959Y-93154499D01*
X137449230Y-93154499D01*
X137096500Y-93154500D01*
X137096500Y-92456000D01*
X136461500Y-92456000D01*
X136461500Y-91821000D01*
X135756364Y-91821000D01*
X135794750Y-91154250D01*
X136477375Y-91136226D01*
X137160000Y-91118204D01*
X137160000Y-91757500D01*
G37*
D14*
X76565000Y-109985000D02*
X74565000Y-109985000D01*
X76565000Y-107185000D02*
X76565000Y-109985000D01*
X74565000Y-109985000D02*
X74565000Y-107185000D01*
X74565000Y-107185000D02*
X76565000Y-107185000D01*
X98570000Y-84185000D02*
X95770000Y-84185000D01*
X98570000Y-82185000D02*
X98570000Y-84185000D01*
X95770000Y-84185000D02*
X95770000Y-82185000D01*
X95770000Y-82185000D02*
X98570000Y-82185000D01*
M02*
