G04 #@! TF.GenerationSoftware,KiCad,Pcbnew,8.0.2*
G04 #@! TF.CreationDate,2024-05-19T16:48:41+02:00*
G04 #@! TF.ProjectId,BulkyModem Module Audio,42756c6b-794d-46f6-9465-6d204d6f6475,rev?*
G04 #@! TF.SameCoordinates,Original*
G04 #@! TF.FileFunction,Legend,Bot*
G04 #@! TF.FilePolarity,Positive*
%FSLAX46Y46*%
G04 Gerber Fmt 4.6, Leading zero omitted, Abs format (unit mm)*
G04 Created by KiCad (PCBNEW 8.0.2) date 2024-05-19 16:48:41*
%MOMM*%
%LPD*%
G01*
G04 APERTURE LIST*
%ADD10C,0.150000*%
%ADD11C,0.120000*%
G04 APERTURE END LIST*
D10*
X137835714Y-93173104D02*
X138311904Y-93173104D01*
X137740476Y-93458819D02*
X138073809Y-92458819D01*
X138073809Y-92458819D02*
X138407142Y-93458819D01*
X138692857Y-92554057D02*
X138740476Y-92506438D01*
X138740476Y-92506438D02*
X138835714Y-92458819D01*
X138835714Y-92458819D02*
X139073809Y-92458819D01*
X139073809Y-92458819D02*
X139169047Y-92506438D01*
X139169047Y-92506438D02*
X139216666Y-92554057D01*
X139216666Y-92554057D02*
X139264285Y-92649295D01*
X139264285Y-92649295D02*
X139264285Y-92744533D01*
X139264285Y-92744533D02*
X139216666Y-92887390D01*
X139216666Y-92887390D02*
X138645238Y-93458819D01*
X138645238Y-93458819D02*
X139264285Y-93458819D01*
X165493333Y-102348819D02*
X165493333Y-103063104D01*
X165493333Y-103063104D02*
X165540952Y-103205961D01*
X165540952Y-103205961D02*
X165636190Y-103301200D01*
X165636190Y-103301200D02*
X165779047Y-103348819D01*
X165779047Y-103348819D02*
X165874285Y-103348819D01*
X164493333Y-103348819D02*
X165064761Y-103348819D01*
X164779047Y-103348819D02*
X164779047Y-102348819D01*
X164779047Y-102348819D02*
X164874285Y-102491676D01*
X164874285Y-102491676D02*
X164969523Y-102586914D01*
X164969523Y-102586914D02*
X165064761Y-102634533D01*
X165786009Y-112433047D02*
X165833628Y-112575904D01*
X165833628Y-112575904D02*
X165881247Y-112623523D01*
X165881247Y-112623523D02*
X165976485Y-112671142D01*
X165976485Y-112671142D02*
X166119342Y-112671142D01*
X166119342Y-112671142D02*
X166214580Y-112623523D01*
X166214580Y-112623523D02*
X166262200Y-112575904D01*
X166262200Y-112575904D02*
X166309819Y-112480666D01*
X166309819Y-112480666D02*
X166309819Y-112099714D01*
X166309819Y-112099714D02*
X165309819Y-112099714D01*
X165309819Y-112099714D02*
X165309819Y-112433047D01*
X165309819Y-112433047D02*
X165357438Y-112528285D01*
X165357438Y-112528285D02*
X165405057Y-112575904D01*
X165405057Y-112575904D02*
X165500295Y-112623523D01*
X165500295Y-112623523D02*
X165595533Y-112623523D01*
X165595533Y-112623523D02*
X165690771Y-112575904D01*
X165690771Y-112575904D02*
X165738390Y-112528285D01*
X165738390Y-112528285D02*
X165786009Y-112433047D01*
X165786009Y-112433047D02*
X165786009Y-112099714D01*
X165309819Y-113004476D02*
X165309819Y-113671142D01*
X165309819Y-113671142D02*
X166309819Y-113004476D01*
X166309819Y-113004476D02*
X166309819Y-113671142D01*
X166309819Y-114575904D02*
X166309819Y-114004476D01*
X166309819Y-114290190D02*
X165309819Y-114290190D01*
X165309819Y-114290190D02*
X165452676Y-114194952D01*
X165452676Y-114194952D02*
X165547914Y-114099714D01*
X165547914Y-114099714D02*
X165595533Y-114004476D01*
X160848866Y-109123048D02*
X160848866Y-109884953D01*
X161229819Y-109504000D02*
X160467914Y-109504000D01*
X148529819Y-108077333D02*
X148053628Y-107744000D01*
X148529819Y-107505905D02*
X147529819Y-107505905D01*
X147529819Y-107505905D02*
X147529819Y-107886857D01*
X147529819Y-107886857D02*
X147577438Y-107982095D01*
X147577438Y-107982095D02*
X147625057Y-108029714D01*
X147625057Y-108029714D02*
X147720295Y-108077333D01*
X147720295Y-108077333D02*
X147863152Y-108077333D01*
X147863152Y-108077333D02*
X147958390Y-108029714D01*
X147958390Y-108029714D02*
X148006009Y-107982095D01*
X148006009Y-107982095D02*
X148053628Y-107886857D01*
X148053628Y-107886857D02*
X148053628Y-107505905D01*
X148529819Y-109029714D02*
X148529819Y-108458286D01*
X148529819Y-108744000D02*
X147529819Y-108744000D01*
X147529819Y-108744000D02*
X147672676Y-108648762D01*
X147672676Y-108648762D02*
X147767914Y-108553524D01*
X147767914Y-108553524D02*
X147815533Y-108458286D01*
X150027618Y-107698819D02*
X149932380Y-107698819D01*
X149932380Y-107698819D02*
X149837142Y-107746438D01*
X149837142Y-107746438D02*
X149789523Y-107794057D01*
X149789523Y-107794057D02*
X149741904Y-107889295D01*
X149741904Y-107889295D02*
X149694285Y-108079771D01*
X149694285Y-108079771D02*
X149694285Y-108317866D01*
X149694285Y-108317866D02*
X149741904Y-108508342D01*
X149741904Y-108508342D02*
X149789523Y-108603580D01*
X149789523Y-108603580D02*
X149837142Y-108651200D01*
X149837142Y-108651200D02*
X149932380Y-108698819D01*
X149932380Y-108698819D02*
X150027618Y-108698819D01*
X150027618Y-108698819D02*
X150122856Y-108651200D01*
X150122856Y-108651200D02*
X150170475Y-108603580D01*
X150170475Y-108603580D02*
X150218094Y-108508342D01*
X150218094Y-108508342D02*
X150265713Y-108317866D01*
X150265713Y-108317866D02*
X150265713Y-108079771D01*
X150265713Y-108079771D02*
X150218094Y-107889295D01*
X150218094Y-107889295D02*
X150170475Y-107794057D01*
X150170475Y-107794057D02*
X150122856Y-107746438D01*
X150122856Y-107746438D02*
X150027618Y-107698819D01*
D11*
X134045000Y-91674000D02*
X135375000Y-91674000D01*
X134045000Y-93004000D02*
X134045000Y-91674000D01*
X134045000Y-94274000D02*
X134045000Y-101954000D01*
X134045000Y-94274000D02*
X136705000Y-94274000D01*
X134045000Y-101954000D02*
X136705000Y-101954000D01*
X136705000Y-94274000D02*
X136705000Y-101954000D01*
X159445000Y-78974000D02*
X159445000Y-86714000D01*
X159445000Y-78974000D02*
X162105000Y-78974000D01*
X159445000Y-86714000D02*
X162105000Y-86714000D01*
X162105000Y-78974000D02*
X162105000Y-86714000D01*
X159505000Y-101894000D02*
X159505000Y-100624000D01*
X160775000Y-101894000D02*
X159505000Y-101894000D01*
X162215000Y-91674000D02*
X162215000Y-101954000D01*
X162215000Y-92624000D02*
X161817929Y-92624000D01*
X162215000Y-93384000D02*
X161817929Y-93384000D01*
X162215000Y-95164000D02*
X161817929Y-95164000D01*
X162215000Y-95924000D02*
X161817929Y-95924000D01*
X162215000Y-97704000D02*
X161817929Y-97704000D01*
X162215000Y-98464000D02*
X161817929Y-98464000D01*
X162215000Y-100244000D02*
X161885000Y-100244000D01*
X162215000Y-101004000D02*
X161885000Y-101004000D01*
X162215000Y-101954000D02*
X164875000Y-101954000D01*
X164875000Y-91674000D02*
X162215000Y-91674000D01*
X164875000Y-92624000D02*
X170875000Y-92624000D01*
X164875000Y-94274000D02*
X162215000Y-94274000D01*
X164875000Y-95164000D02*
X170875000Y-95164000D01*
X164875000Y-96814000D02*
X162215000Y-96814000D01*
X164875000Y-97704000D02*
X170875000Y-97704000D01*
X164875000Y-99354000D02*
X162215000Y-99354000D01*
X164875000Y-100244000D02*
X170875000Y-100244000D01*
X164875000Y-101954000D02*
X164875000Y-91674000D01*
X170875000Y-92624000D02*
X170875000Y-93384000D01*
X170875000Y-93384000D02*
X164875000Y-93384000D01*
X170875000Y-95164000D02*
X170875000Y-95924000D01*
X170875000Y-95924000D02*
X164875000Y-95924000D01*
X170875000Y-97704000D02*
X170875000Y-98464000D01*
X170875000Y-98464000D02*
X164875000Y-98464000D01*
X170875000Y-100244000D02*
X170875000Y-101004000D01*
X170875000Y-100344000D02*
X164875000Y-100344000D01*
X170875000Y-100464000D02*
X164875000Y-100464000D01*
X170875000Y-100584000D02*
X164875000Y-100584000D01*
X170875000Y-100704000D02*
X164875000Y-100704000D01*
X170875000Y-100824000D02*
X164875000Y-100824000D01*
X170875000Y-100944000D02*
X164875000Y-100944000D01*
X170875000Y-101004000D02*
X164875000Y-101004000D01*
X169415000Y-113314000D02*
G75*
G02*
X157215000Y-113314000I-6100000J0D01*
G01*
X157215000Y-113314000D02*
G75*
G02*
X169415000Y-113314000I6100000J0D01*
G01*
X146710000Y-106874000D02*
X146710000Y-109614000D01*
X146710000Y-108244000D02*
X145940000Y-108244000D01*
X146710000Y-109614000D02*
X153250000Y-109614000D01*
X153250000Y-106874000D02*
X146710000Y-106874000D01*
X153250000Y-108244000D02*
X154020000Y-108244000D01*
X153250000Y-109614000D02*
X153250000Y-106874000D01*
M02*
