M48
; DRILL file {KiCad 8.0.2} date 2024-05-19T16:48:44+0200
; FORMAT={-:-/ absolute / inch / decimal}
; #@! TF.CreationDate,2024-05-19T16:48:44+02:00
; #@! TF.GenerationSoftware,Kicad,Pcbnew,8.0.2
; #@! TF.FileFunction,Plated,1,2,PTH
FMAT,2
INCH
; #@! TA.AperFunction,Plated,PTH,ViaDrill
T1C0.0157
; #@! TA.AperFunction,Plated,PTH,ComponentDrill
T2C0.0315
; #@! TA.AperFunction,Plated,PTH,ComponentDrill
T3C0.0394
; #@! TA.AperFunction,Plated,PTH,ComponentDrill
T4C0.1200
%
G90
G05
T1
X6.2282Y-4.4381
X6.2297Y-4.3366
T2
X5.7047Y-4.2616
X6.1047Y-4.2616
T3
X4.8297Y-4.1366
X4.8297Y-4.8616
X4.9297Y-4.1366
X4.9297Y-4.8616
X5.0297Y-4.1366
X5.0297Y-4.8616
X5.1297Y-4.1366
X5.1297Y-4.8616
X5.2297Y-4.1366
X5.2297Y-4.8616
X5.3297Y-3.6616
X5.3297Y-3.7616
X5.3297Y-3.8616
X5.3297Y-3.9616
X5.3297Y-4.1366
X5.3297Y-4.8616
X5.4297Y-4.1366
X5.4297Y-4.8616
X5.5297Y-4.1366
X5.5297Y-4.8616
X6.3297Y-3.1616
X6.3297Y-3.2616
X6.3297Y-3.3616
X6.3297Y-3.6616
X6.3297Y-3.7616
X6.3297Y-3.8616
X6.3297Y-3.9616
X6.4297Y-4.3828
X6.4297Y-4.5395
T4
X5.8547Y-4.5616
T3
G00X6.4297Y-4.2919
M15
G01X6.4297Y-4.3313
M16
G05
G00X6.4297Y-4.5911
M15
G01X6.4297Y-4.6305
M16
G05
M30
