G04 #@! TF.GenerationSoftware,KiCad,Pcbnew,8.0.2*
G04 #@! TF.CreationDate,2024-05-19T16:48:41+02:00*
G04 #@! TF.ProjectId,BulkyModem Module Audio,42756c6b-794d-46f6-9465-6d204d6f6475,rev?*
G04 #@! TF.SameCoordinates,Original*
G04 #@! TF.FileFunction,Copper,L2,Bot*
G04 #@! TF.FilePolarity,Positive*
%FSLAX46Y46*%
G04 Gerber Fmt 4.6, Leading zero omitted, Abs format (unit mm)*
G04 Created by KiCad (PCBNEW 8.0.2) date 2024-05-19 16:48:41*
%MOMM*%
%LPD*%
G01*
G04 APERTURE LIST*
G04 #@! TA.AperFunction,ComponentPad*
%ADD10C,3.500000*%
G04 #@! TD*
G04 #@! TA.AperFunction,ComponentPad*
%ADD11R,1.700000X2.400000*%
G04 #@! TD*
G04 #@! TA.AperFunction,ComponentPad*
%ADD12O,1.700000X2.400000*%
G04 #@! TD*
G04 #@! TA.AperFunction,ComponentPad*
%ADD13R,1.700000X1.700000*%
G04 #@! TD*
G04 #@! TA.AperFunction,ComponentPad*
%ADD14O,1.700000X1.700000*%
G04 #@! TD*
G04 #@! TA.AperFunction,ComponentPad*
%ADD15R,2.000000X3.000000*%
G04 #@! TD*
G04 #@! TA.AperFunction,ComponentPad*
%ADD16R,2.000000X2.000000*%
G04 #@! TD*
G04 #@! TA.AperFunction,ComponentPad*
%ADD17C,2.000000*%
G04 #@! TD*
G04 #@! TA.AperFunction,ComponentPad*
%ADD18O,2.000000X3.000000*%
G04 #@! TD*
G04 #@! TA.AperFunction,ComponentPad*
%ADD19C,1.600000*%
G04 #@! TD*
G04 #@! TA.AperFunction,ComponentPad*
%ADD20O,1.600000X1.600000*%
G04 #@! TD*
G04 #@! TA.AperFunction,ViaPad*
%ADD21C,0.800000*%
G04 #@! TD*
G04 #@! TA.AperFunction,Conductor*
%ADD22C,0.381000*%
G04 #@! TD*
G04 APERTURE END LIST*
D10*
X148710000Y-115864000D03*
D11*
X140455000Y-105069000D03*
D12*
X137915000Y-105069000D03*
X135375000Y-105069000D03*
X132835000Y-105069000D03*
X130295000Y-105069000D03*
X127755000Y-105069000D03*
X125215000Y-105069000D03*
X122675000Y-105069000D03*
X122675000Y-123484000D03*
X125215000Y-123484000D03*
X127755000Y-123484000D03*
X130295000Y-123484000D03*
X132835000Y-123484000D03*
X135375000Y-123484000D03*
X137915000Y-123484000D03*
X140455000Y-123484000D03*
D13*
X135375000Y-93004000D03*
D14*
X135375000Y-95544000D03*
X135375000Y-98084000D03*
X135375000Y-100624000D03*
X160775000Y-85384000D03*
X160775000Y-82844000D03*
X160775000Y-80304000D03*
D13*
X160775000Y-100624000D03*
D14*
X160775000Y-98084000D03*
X160775000Y-95544000D03*
X160775000Y-93004000D03*
D15*
X163315000Y-109514000D03*
D16*
X163315000Y-111324000D03*
D17*
X163315000Y-115304000D03*
D18*
X163315000Y-117114000D03*
D19*
X155060000Y-108244000D03*
D20*
X144900000Y-108244000D03*
D21*
X158235000Y-110149000D03*
X158197500Y-112726500D03*
D22*
X158235000Y-112689000D02*
X158235000Y-110149000D01*
X158197500Y-112726500D02*
X158235000Y-112689000D01*
G04 #@! TA.AperFunction,Conductor*
G36*
X163954930Y-77789888D02*
G01*
X164134797Y-77804044D01*
X164154325Y-77807137D01*
X164239627Y-77827616D01*
X164324932Y-77848095D01*
X164343734Y-77854205D01*
X164505827Y-77921346D01*
X164523444Y-77930322D01*
X164673044Y-78021997D01*
X164689040Y-78033619D01*
X164822453Y-78147566D01*
X164836433Y-78161546D01*
X164950380Y-78294959D01*
X164962002Y-78310955D01*
X165053677Y-78460555D01*
X165062653Y-78478172D01*
X165129794Y-78640265D01*
X165135904Y-78659069D01*
X165176862Y-78829674D01*
X165179955Y-78849201D01*
X165194112Y-79029069D01*
X165194500Y-79038956D01*
X165194500Y-106947232D01*
X165193968Y-106950860D01*
X165194468Y-106972861D01*
X165194500Y-106975720D01*
X165194500Y-106984562D01*
X165194758Y-106984820D01*
X165205890Y-106997558D01*
X165206310Y-106998110D01*
X165206535Y-106998297D01*
X165209437Y-106999499D01*
X165209438Y-106999500D01*
X165209439Y-106999500D01*
X165219167Y-107003530D01*
X165235614Y-107006260D01*
X165678401Y-107157473D01*
X165687237Y-107160867D01*
X165867030Y-107237804D01*
X166135336Y-107352617D01*
X166143902Y-107356670D01*
X166576318Y-107581568D01*
X166584538Y-107586245D01*
X166920960Y-107794759D01*
X166998808Y-107843009D01*
X167006668Y-107848299D01*
X167136609Y-107943062D01*
X167400471Y-108135490D01*
X167407915Y-108141360D01*
X167779005Y-108457341D01*
X167785986Y-108463755D01*
X168132262Y-108806735D01*
X168138742Y-108813654D01*
X168458260Y-109181707D01*
X168464201Y-109189095D01*
X168755133Y-109580117D01*
X168760502Y-109587930D01*
X169021220Y-109999732D01*
X169025984Y-110007922D01*
X169255009Y-110438172D01*
X169259138Y-110446686D01*
X169455157Y-110892913D01*
X169458641Y-110901730D01*
X169620562Y-111361452D01*
X169623372Y-111370506D01*
X169750262Y-111841063D01*
X169752385Y-111850302D01*
X169843545Y-112329109D01*
X169844966Y-112338482D01*
X169899866Y-112822759D01*
X169900579Y-112832212D01*
X169918914Y-113319260D01*
X169918914Y-113328740D01*
X169900579Y-113815787D01*
X169899866Y-113825240D01*
X169844966Y-114309517D01*
X169843545Y-114318890D01*
X169752385Y-114797697D01*
X169750262Y-114806936D01*
X169623372Y-115277493D01*
X169620562Y-115286547D01*
X169458641Y-115746269D01*
X169455157Y-115755086D01*
X169259138Y-116201313D01*
X169255004Y-116209837D01*
X169227902Y-116260753D01*
X169025986Y-116640073D01*
X169021220Y-116648267D01*
X168760502Y-117060069D01*
X168755133Y-117067882D01*
X168464201Y-117458904D01*
X168458260Y-117466292D01*
X168138742Y-117834345D01*
X168132262Y-117841264D01*
X167785986Y-118184244D01*
X167779005Y-118190658D01*
X167407915Y-118506639D01*
X167400471Y-118512509D01*
X167006672Y-118799697D01*
X166998808Y-118804990D01*
X166584548Y-119061748D01*
X166576308Y-119066436D01*
X166143905Y-119291327D01*
X166135336Y-119295382D01*
X165687244Y-119487129D01*
X165678395Y-119490528D01*
X165476257Y-119559558D01*
X165235616Y-119641738D01*
X165219169Y-119644469D01*
X165206545Y-119649696D01*
X165206302Y-119649899D01*
X165205883Y-119650450D01*
X165194769Y-119663167D01*
X165194501Y-119663434D01*
X165194500Y-119663438D01*
X165194500Y-119672279D01*
X165194468Y-119675136D01*
X165193967Y-119697198D01*
X165194500Y-119700822D01*
X165194500Y-124749043D01*
X165194112Y-124758930D01*
X165179955Y-124938798D01*
X165176862Y-124958325D01*
X165135904Y-125128930D01*
X165129794Y-125147734D01*
X165062653Y-125309827D01*
X165053677Y-125327444D01*
X164962002Y-125477044D01*
X164950380Y-125493040D01*
X164836433Y-125626453D01*
X164822453Y-125640433D01*
X164689040Y-125754380D01*
X164673044Y-125766002D01*
X164523444Y-125857677D01*
X164505827Y-125866653D01*
X164343734Y-125933794D01*
X164324930Y-125939904D01*
X164154325Y-125980862D01*
X164134798Y-125983955D01*
X163968770Y-125997022D01*
X163954928Y-125998112D01*
X163945044Y-125998500D01*
X122374956Y-125998500D01*
X122365071Y-125998112D01*
X122350111Y-125996934D01*
X122185201Y-125983955D01*
X122165674Y-125980862D01*
X121995069Y-125939904D01*
X121976265Y-125933794D01*
X121814172Y-125866653D01*
X121796555Y-125857677D01*
X121646955Y-125766002D01*
X121630959Y-125754380D01*
X121497546Y-125640433D01*
X121483566Y-125626453D01*
X121369619Y-125493040D01*
X121357997Y-125477044D01*
X121266322Y-125327444D01*
X121257346Y-125309827D01*
X121190205Y-125147734D01*
X121184095Y-125128930D01*
X121143137Y-124958325D01*
X121140044Y-124938797D01*
X121125888Y-124758929D01*
X121125500Y-124749043D01*
X121125500Y-124256860D01*
X121145502Y-124188739D01*
X121199158Y-124142246D01*
X121269432Y-124132142D01*
X121334012Y-124161636D01*
X121371333Y-124217924D01*
X121404999Y-124321541D01*
X121416028Y-124355483D01*
X121513106Y-124546009D01*
X121638794Y-124719004D01*
X121638796Y-124719006D01*
X121638798Y-124719009D01*
X121789990Y-124870201D01*
X121789993Y-124870203D01*
X121789996Y-124870206D01*
X121962991Y-124995894D01*
X122153517Y-125092972D01*
X122356878Y-125159047D01*
X122356879Y-125159047D01*
X122356884Y-125159049D01*
X122568084Y-125192500D01*
X122568087Y-125192500D01*
X122781913Y-125192500D01*
X122781916Y-125192500D01*
X122993116Y-125159049D01*
X123196483Y-125092972D01*
X123387009Y-124995894D01*
X123560004Y-124870206D01*
X123711206Y-124719004D01*
X123836894Y-124546009D01*
X123836902Y-124545992D01*
X123837854Y-124544441D01*
X123838377Y-124543967D01*
X123839804Y-124542004D01*
X123840216Y-124542303D01*
X123890497Y-124496804D01*
X123960537Y-124485189D01*
X124025738Y-124513285D01*
X124050484Y-124541843D01*
X124050624Y-124541742D01*
X124051801Y-124543362D01*
X124052729Y-124544433D01*
X124053535Y-124545749D01*
X124179177Y-124718679D01*
X124330320Y-124869822D01*
X124503249Y-124995463D01*
X124693707Y-125092506D01*
X124693713Y-125092509D01*
X124896998Y-125158560D01*
X124961000Y-125168696D01*
X124961000Y-123914702D01*
X125022007Y-123949925D01*
X125149174Y-123984000D01*
X125280826Y-123984000D01*
X125407993Y-123949925D01*
X125469000Y-123914702D01*
X125469000Y-125168696D01*
X125533001Y-125158560D01*
X125736286Y-125092509D01*
X125736292Y-125092506D01*
X125926750Y-124995463D01*
X126099679Y-124869822D01*
X126250822Y-124718679D01*
X126376460Y-124545754D01*
X126377261Y-124544448D01*
X126377695Y-124544054D01*
X126379376Y-124541742D01*
X126379861Y-124542094D01*
X126429900Y-124496807D01*
X126499940Y-124485188D01*
X126565142Y-124513280D01*
X126590097Y-124542075D01*
X126590196Y-124542004D01*
X126591025Y-124543145D01*
X126592136Y-124544427D01*
X126593103Y-124546006D01*
X126668518Y-124649806D01*
X126718794Y-124719004D01*
X126718796Y-124719006D01*
X126718798Y-124719009D01*
X126869990Y-124870201D01*
X126869993Y-124870203D01*
X126869996Y-124870206D01*
X127042991Y-124995894D01*
X127233517Y-125092972D01*
X127436878Y-125159047D01*
X127436879Y-125159047D01*
X127436884Y-125159049D01*
X127648084Y-125192500D01*
X127648087Y-125192500D01*
X127861913Y-125192500D01*
X127861916Y-125192500D01*
X128073116Y-125159049D01*
X128276483Y-125092972D01*
X128467009Y-124995894D01*
X128640004Y-124870206D01*
X128791206Y-124719004D01*
X128916894Y-124546009D01*
X128916899Y-124545997D01*
X128917561Y-124544920D01*
X128917924Y-124544591D01*
X128919804Y-124542004D01*
X128920347Y-124542398D01*
X128970204Y-124497283D01*
X129040244Y-124485670D01*
X129105445Y-124513766D01*
X129130021Y-124542130D01*
X129130196Y-124542004D01*
X129131668Y-124544030D01*
X129132439Y-124544920D01*
X129133104Y-124546006D01*
X129133106Y-124546009D01*
X129258794Y-124719004D01*
X129258796Y-124719006D01*
X129258798Y-124719009D01*
X129409990Y-124870201D01*
X129409993Y-124870203D01*
X129409996Y-124870206D01*
X129582991Y-124995894D01*
X129773517Y-125092972D01*
X129976878Y-125159047D01*
X129976879Y-125159047D01*
X129976884Y-125159049D01*
X130188084Y-125192500D01*
X130188087Y-125192500D01*
X130401913Y-125192500D01*
X130401916Y-125192500D01*
X130613116Y-125159049D01*
X130816483Y-125092972D01*
X131007009Y-124995894D01*
X131180004Y-124870206D01*
X131331206Y-124719004D01*
X131456894Y-124546009D01*
X131456899Y-124545997D01*
X131457561Y-124544920D01*
X131457924Y-124544591D01*
X131459804Y-124542004D01*
X131460347Y-124542398D01*
X131510204Y-124497283D01*
X131580244Y-124485670D01*
X131645445Y-124513766D01*
X131670021Y-124542130D01*
X131670196Y-124542004D01*
X131671668Y-124544030D01*
X131672439Y-124544920D01*
X131673104Y-124546006D01*
X131673106Y-124546009D01*
X131798794Y-124719004D01*
X131798796Y-124719006D01*
X131798798Y-124719009D01*
X131949990Y-124870201D01*
X131949993Y-124870203D01*
X131949996Y-124870206D01*
X132122991Y-124995894D01*
X132313517Y-125092972D01*
X132516878Y-125159047D01*
X132516879Y-125159047D01*
X132516884Y-125159049D01*
X132728084Y-125192500D01*
X132728087Y-125192500D01*
X132941913Y-125192500D01*
X132941916Y-125192500D01*
X133153116Y-125159049D01*
X133356483Y-125092972D01*
X133547009Y-124995894D01*
X133720004Y-124870206D01*
X133871206Y-124719004D01*
X133996894Y-124546009D01*
X133996899Y-124545997D01*
X133997561Y-124544920D01*
X133997924Y-124544591D01*
X133999804Y-124542004D01*
X134000347Y-124542398D01*
X134050204Y-124497283D01*
X134120244Y-124485670D01*
X134185445Y-124513766D01*
X134210021Y-124542130D01*
X134210196Y-124542004D01*
X134211668Y-124544030D01*
X134212439Y-124544920D01*
X134213104Y-124546006D01*
X134213106Y-124546009D01*
X134338794Y-124719004D01*
X134338796Y-124719006D01*
X134338798Y-124719009D01*
X134489990Y-124870201D01*
X134489993Y-124870203D01*
X134489996Y-124870206D01*
X134662991Y-124995894D01*
X134853517Y-125092972D01*
X135056878Y-125159047D01*
X135056879Y-125159047D01*
X135056884Y-125159049D01*
X135268084Y-125192500D01*
X135268087Y-125192500D01*
X135481913Y-125192500D01*
X135481916Y-125192500D01*
X135693116Y-125159049D01*
X135896483Y-125092972D01*
X136087009Y-124995894D01*
X136260004Y-124870206D01*
X136411206Y-124719004D01*
X136536894Y-124546009D01*
X136536899Y-124545997D01*
X136537561Y-124544920D01*
X136537924Y-124544591D01*
X136539804Y-124542004D01*
X136540347Y-124542398D01*
X136590204Y-124497283D01*
X136660244Y-124485670D01*
X136725445Y-124513766D01*
X136750021Y-124542130D01*
X136750196Y-124542004D01*
X136751668Y-124544030D01*
X136752439Y-124544920D01*
X136753104Y-124546006D01*
X136753106Y-124546009D01*
X136878794Y-124719004D01*
X136878796Y-124719006D01*
X136878798Y-124719009D01*
X137029990Y-124870201D01*
X137029993Y-124870203D01*
X137029996Y-124870206D01*
X137202991Y-124995894D01*
X137393517Y-125092972D01*
X137596878Y-125159047D01*
X137596879Y-125159047D01*
X137596884Y-125159049D01*
X137808084Y-125192500D01*
X137808087Y-125192500D01*
X138021913Y-125192500D01*
X138021916Y-125192500D01*
X138233116Y-125159049D01*
X138436483Y-125092972D01*
X138627009Y-124995894D01*
X138800004Y-124870206D01*
X138951206Y-124719004D01*
X139076894Y-124546009D01*
X139076899Y-124545997D01*
X139077561Y-124544920D01*
X139077924Y-124544591D01*
X139079804Y-124542004D01*
X139080347Y-124542398D01*
X139130204Y-124497283D01*
X139200244Y-124485670D01*
X139265445Y-124513766D01*
X139290021Y-124542130D01*
X139290196Y-124542004D01*
X139291668Y-124544030D01*
X139292439Y-124544920D01*
X139293104Y-124546006D01*
X139293106Y-124546009D01*
X139418794Y-124719004D01*
X139418796Y-124719006D01*
X139418798Y-124719009D01*
X139569990Y-124870201D01*
X139569993Y-124870203D01*
X139569996Y-124870206D01*
X139742991Y-124995894D01*
X139933517Y-125092972D01*
X140136878Y-125159047D01*
X140136879Y-125159047D01*
X140136884Y-125159049D01*
X140348084Y-125192500D01*
X140348087Y-125192500D01*
X140561913Y-125192500D01*
X140561916Y-125192500D01*
X140773116Y-125159049D01*
X140976483Y-125092972D01*
X141167009Y-124995894D01*
X141340004Y-124870206D01*
X141491206Y-124719004D01*
X141616894Y-124546009D01*
X141713972Y-124355483D01*
X141780049Y-124152116D01*
X141813500Y-123940916D01*
X141813500Y-123027084D01*
X141780049Y-122815884D01*
X141713972Y-122612517D01*
X141616894Y-122421991D01*
X141491206Y-122248996D01*
X141491203Y-122248993D01*
X141491201Y-122248990D01*
X141340009Y-122097798D01*
X141340006Y-122097796D01*
X141340004Y-122097794D01*
X141167009Y-121972106D01*
X140976483Y-121875028D01*
X140976480Y-121875027D01*
X140976478Y-121875026D01*
X140773120Y-121808952D01*
X140773123Y-121808952D01*
X140712195Y-121799302D01*
X140561916Y-121775500D01*
X140348084Y-121775500D01*
X140136884Y-121808951D01*
X140136878Y-121808952D01*
X139933521Y-121875026D01*
X139933515Y-121875029D01*
X139742987Y-121972108D01*
X139569993Y-122097796D01*
X139569990Y-122097798D01*
X139418798Y-122248990D01*
X139418796Y-122248993D01*
X139293108Y-122421987D01*
X139292434Y-122423088D01*
X139292068Y-122423418D01*
X139290196Y-122425996D01*
X139289654Y-122425602D01*
X139239787Y-122470721D01*
X139169745Y-122482328D01*
X139104547Y-122454226D01*
X139079976Y-122425870D01*
X139079804Y-122425996D01*
X139078341Y-122423982D01*
X139077566Y-122423088D01*
X139076896Y-122421996D01*
X139076894Y-122421991D01*
X138951206Y-122248996D01*
X138951203Y-122248993D01*
X138951201Y-122248990D01*
X138800009Y-122097798D01*
X138800006Y-122097796D01*
X138800004Y-122097794D01*
X138627009Y-121972106D01*
X138436483Y-121875028D01*
X138436480Y-121875027D01*
X138436478Y-121875026D01*
X138233120Y-121808952D01*
X138233123Y-121808952D01*
X138172195Y-121799302D01*
X138021916Y-121775500D01*
X137808084Y-121775500D01*
X137596884Y-121808951D01*
X137596878Y-121808952D01*
X137393521Y-121875026D01*
X137393515Y-121875029D01*
X137202987Y-121972108D01*
X137029993Y-122097796D01*
X137029990Y-122097798D01*
X136878798Y-122248990D01*
X136878796Y-122248993D01*
X136753108Y-122421987D01*
X136752434Y-122423088D01*
X136752068Y-122423418D01*
X136750196Y-122425996D01*
X136749654Y-122425602D01*
X136699787Y-122470721D01*
X136629745Y-122482328D01*
X136564547Y-122454226D01*
X136539976Y-122425870D01*
X136539804Y-122425996D01*
X136538341Y-122423982D01*
X136537566Y-122423088D01*
X136536896Y-122421996D01*
X136536894Y-122421991D01*
X136411206Y-122248996D01*
X136411203Y-122248993D01*
X136411201Y-122248990D01*
X136260009Y-122097798D01*
X136260006Y-122097796D01*
X136260004Y-122097794D01*
X136087009Y-121972106D01*
X135896483Y-121875028D01*
X135896480Y-121875027D01*
X135896478Y-121875026D01*
X135693120Y-121808952D01*
X135693123Y-121808952D01*
X135632195Y-121799302D01*
X135481916Y-121775500D01*
X135268084Y-121775500D01*
X135056884Y-121808951D01*
X135056878Y-121808952D01*
X134853521Y-121875026D01*
X134853515Y-121875029D01*
X134662987Y-121972108D01*
X134489993Y-122097796D01*
X134489990Y-122097798D01*
X134338798Y-122248990D01*
X134338796Y-122248993D01*
X134213108Y-122421987D01*
X134212434Y-122423088D01*
X134212068Y-122423418D01*
X134210196Y-122425996D01*
X134209654Y-122425602D01*
X134159787Y-122470721D01*
X134089745Y-122482328D01*
X134024547Y-122454226D01*
X133999976Y-122425870D01*
X133999804Y-122425996D01*
X133998341Y-122423982D01*
X133997566Y-122423088D01*
X133996896Y-122421996D01*
X133996894Y-122421991D01*
X133871206Y-122248996D01*
X133871203Y-122248993D01*
X133871201Y-122248990D01*
X133720009Y-122097798D01*
X133720006Y-122097796D01*
X133720004Y-122097794D01*
X133547009Y-121972106D01*
X133356483Y-121875028D01*
X133356480Y-121875027D01*
X133356478Y-121875026D01*
X133153120Y-121808952D01*
X133153123Y-121808952D01*
X133092195Y-121799302D01*
X132941916Y-121775500D01*
X132728084Y-121775500D01*
X132516884Y-121808951D01*
X132516878Y-121808952D01*
X132313521Y-121875026D01*
X132313515Y-121875029D01*
X132122987Y-121972108D01*
X131949993Y-122097796D01*
X131949990Y-122097798D01*
X131798798Y-122248990D01*
X131798796Y-122248993D01*
X131673108Y-122421987D01*
X131672434Y-122423088D01*
X131672068Y-122423418D01*
X131670196Y-122425996D01*
X131669654Y-122425602D01*
X131619787Y-122470721D01*
X131549745Y-122482328D01*
X131484547Y-122454226D01*
X131459976Y-122425870D01*
X131459804Y-122425996D01*
X131458341Y-122423982D01*
X131457566Y-122423088D01*
X131456896Y-122421996D01*
X131456894Y-122421991D01*
X131331206Y-122248996D01*
X131331203Y-122248993D01*
X131331201Y-122248990D01*
X131180009Y-122097798D01*
X131180006Y-122097796D01*
X131180004Y-122097794D01*
X131007009Y-121972106D01*
X130816483Y-121875028D01*
X130816480Y-121875027D01*
X130816478Y-121875026D01*
X130613120Y-121808952D01*
X130613123Y-121808952D01*
X130552195Y-121799302D01*
X130401916Y-121775500D01*
X130188084Y-121775500D01*
X129976884Y-121808951D01*
X129976878Y-121808952D01*
X129773521Y-121875026D01*
X129773515Y-121875029D01*
X129582987Y-121972108D01*
X129409993Y-122097796D01*
X129409990Y-122097798D01*
X129258798Y-122248990D01*
X129258796Y-122248993D01*
X129133108Y-122421987D01*
X129132434Y-122423088D01*
X129132068Y-122423418D01*
X129130196Y-122425996D01*
X129129654Y-122425602D01*
X129079787Y-122470721D01*
X129009745Y-122482328D01*
X128944547Y-122454226D01*
X128919976Y-122425870D01*
X128919804Y-122425996D01*
X128918341Y-122423982D01*
X128917566Y-122423088D01*
X128916896Y-122421996D01*
X128916894Y-122421991D01*
X128791206Y-122248996D01*
X128791203Y-122248993D01*
X128791201Y-122248990D01*
X128640009Y-122097798D01*
X128640006Y-122097796D01*
X128640004Y-122097794D01*
X128467009Y-121972106D01*
X128276483Y-121875028D01*
X128276480Y-121875027D01*
X128276478Y-121875026D01*
X128073120Y-121808952D01*
X128073123Y-121808952D01*
X128012195Y-121799302D01*
X127861916Y-121775500D01*
X127648084Y-121775500D01*
X127436884Y-121808951D01*
X127436878Y-121808952D01*
X127233521Y-121875026D01*
X127233515Y-121875029D01*
X127042987Y-121972108D01*
X126869993Y-122097796D01*
X126869990Y-122097798D01*
X126718798Y-122248990D01*
X126718796Y-122248993D01*
X126593100Y-122421998D01*
X126592131Y-122423580D01*
X126591606Y-122424054D01*
X126590196Y-122425996D01*
X126589787Y-122425699D01*
X126539479Y-122471206D01*
X126469437Y-122482807D01*
X126404242Y-122454697D01*
X126379515Y-122426156D01*
X126379376Y-122426258D01*
X126378194Y-122424631D01*
X126377266Y-122423560D01*
X126376460Y-122422244D01*
X126250822Y-122249320D01*
X126099679Y-122098177D01*
X125926750Y-121972536D01*
X125736292Y-121875493D01*
X125736286Y-121875490D01*
X125533004Y-121809440D01*
X125469000Y-121799302D01*
X125469000Y-123053297D01*
X125407993Y-123018075D01*
X125280826Y-122984000D01*
X125149174Y-122984000D01*
X125022007Y-123018075D01*
X124961000Y-123053297D01*
X124961000Y-121799302D01*
X124896995Y-121809440D01*
X124693713Y-121875490D01*
X124693707Y-121875493D01*
X124503249Y-121972536D01*
X124330320Y-122098177D01*
X124179177Y-122249320D01*
X124053532Y-122422255D01*
X124052724Y-122423574D01*
X124052286Y-122423969D01*
X124050624Y-122426258D01*
X124050143Y-122425908D01*
X124000075Y-122471203D01*
X123930033Y-122482807D01*
X123864836Y-122454702D01*
X123839901Y-122425924D01*
X123839804Y-122425996D01*
X123838975Y-122424855D01*
X123837859Y-122423567D01*
X123836899Y-122422001D01*
X123836894Y-122421991D01*
X123711206Y-122248996D01*
X123711203Y-122248993D01*
X123711201Y-122248990D01*
X123560009Y-122097798D01*
X123560006Y-122097796D01*
X123560004Y-122097794D01*
X123387009Y-121972106D01*
X123196483Y-121875028D01*
X123196480Y-121875027D01*
X123196478Y-121875026D01*
X122993120Y-121808952D01*
X122993123Y-121808952D01*
X122932195Y-121799302D01*
X122781916Y-121775500D01*
X122568084Y-121775500D01*
X122356884Y-121808951D01*
X122356878Y-121808952D01*
X122153521Y-121875026D01*
X122153515Y-121875029D01*
X121962987Y-121972108D01*
X121789993Y-122097796D01*
X121789990Y-122097798D01*
X121638798Y-122248990D01*
X121638796Y-122248993D01*
X121513108Y-122421987D01*
X121416029Y-122612515D01*
X121416026Y-122612521D01*
X121371333Y-122750075D01*
X121331260Y-122808681D01*
X121265863Y-122836318D01*
X121195906Y-122824211D01*
X121143600Y-122776205D01*
X121125500Y-122711139D01*
X121125500Y-115863996D01*
X146447155Y-115863996D01*
X146447155Y-115864003D01*
X146466513Y-116159356D01*
X146466515Y-116159370D01*
X146524260Y-116449665D01*
X146524262Y-116449675D01*
X146619401Y-116729945D01*
X146619407Y-116729959D01*
X146750317Y-116995420D01*
X146914763Y-117241532D01*
X146914766Y-117241536D01*
X146942092Y-117272695D01*
X146942094Y-117272695D01*
X147467777Y-116747011D01*
X147547558Y-116856820D01*
X147717180Y-117026442D01*
X147826986Y-117106221D01*
X147301303Y-117631904D01*
X147301303Y-117631906D01*
X147332463Y-117659233D01*
X147332467Y-117659236D01*
X147578579Y-117823682D01*
X147844040Y-117954592D01*
X147844054Y-117954598D01*
X148124324Y-118049737D01*
X148124334Y-118049739D01*
X148414629Y-118107484D01*
X148414643Y-118107486D01*
X148709997Y-118126845D01*
X148710003Y-118126845D01*
X149005356Y-118107486D01*
X149005370Y-118107484D01*
X149295665Y-118049739D01*
X149295675Y-118049737D01*
X149575945Y-117954598D01*
X149575959Y-117954592D01*
X149841420Y-117823682D01*
X150087531Y-117659236D01*
X150118695Y-117631906D01*
X150118695Y-117631904D01*
X149593012Y-117106221D01*
X149702820Y-117026442D01*
X149872442Y-116856820D01*
X149952221Y-116747012D01*
X150477904Y-117272695D01*
X150477906Y-117272695D01*
X150505236Y-117241531D01*
X150669682Y-116995420D01*
X150800592Y-116729959D01*
X150800598Y-116729945D01*
X150895737Y-116449675D01*
X150895739Y-116449665D01*
X150953484Y-116159370D01*
X150953486Y-116159356D01*
X150972845Y-115864003D01*
X150972845Y-115863996D01*
X150953486Y-115568643D01*
X150953484Y-115568629D01*
X150900844Y-115304000D01*
X161801835Y-115304000D01*
X161820465Y-115540711D01*
X161869285Y-115744059D01*
X161875895Y-115771593D01*
X161875895Y-115771595D01*
X161932273Y-115907705D01*
X161939862Y-115978295D01*
X161928132Y-116013122D01*
X161917019Y-116034932D01*
X161843645Y-116260753D01*
X161843644Y-116260758D01*
X161843644Y-116260759D01*
X161806500Y-116495278D01*
X161806500Y-117732722D01*
X161841641Y-117954592D01*
X161843645Y-117967246D01*
X161917016Y-118193058D01*
X161917018Y-118193063D01*
X162024815Y-118404627D01*
X162164380Y-118596722D01*
X162164382Y-118596724D01*
X162164384Y-118596727D01*
X162332272Y-118764615D01*
X162332275Y-118764617D01*
X162332278Y-118764620D01*
X162524373Y-118904185D01*
X162735937Y-119011982D01*
X162961759Y-119085356D01*
X163196278Y-119122500D01*
X163196281Y-119122500D01*
X163433719Y-119122500D01*
X163433722Y-119122500D01*
X163668241Y-119085356D01*
X163894063Y-119011982D01*
X164105627Y-118904185D01*
X164297722Y-118764620D01*
X164465620Y-118596722D01*
X164605185Y-118404627D01*
X164712982Y-118193063D01*
X164786356Y-117967241D01*
X164823500Y-117732722D01*
X164823500Y-116495278D01*
X164786356Y-116260759D01*
X164712982Y-116034937D01*
X164701867Y-116013122D01*
X164688763Y-115943351D01*
X164697725Y-115907705D01*
X164754105Y-115771594D01*
X164809535Y-115540711D01*
X164828165Y-115304000D01*
X164809535Y-115067289D01*
X164754105Y-114836406D01*
X164663240Y-114617037D01*
X164539176Y-114414584D01*
X164507525Y-114377525D01*
X164384969Y-114234030D01*
X164204419Y-114079826D01*
X164204417Y-114079825D01*
X164204416Y-114079824D01*
X164001963Y-113955760D01*
X163782594Y-113864895D01*
X163782592Y-113864894D01*
X163597775Y-113820524D01*
X163551711Y-113809465D01*
X163315000Y-113790835D01*
X163078289Y-113809465D01*
X162847407Y-113864894D01*
X162628038Y-113955759D01*
X162425582Y-114079825D01*
X162425580Y-114079826D01*
X162245030Y-114234030D01*
X162090826Y-114414580D01*
X162090825Y-114414582D01*
X161966759Y-114617038D01*
X161875894Y-114836407D01*
X161837090Y-114998040D01*
X161820465Y-115067289D01*
X161801835Y-115304000D01*
X150900844Y-115304000D01*
X150895739Y-115278334D01*
X150895737Y-115278324D01*
X150800598Y-114998054D01*
X150800592Y-114998040D01*
X150669682Y-114732580D01*
X150505236Y-114486467D01*
X150505233Y-114486463D01*
X150477906Y-114455303D01*
X150477904Y-114455303D01*
X149952220Y-114980986D01*
X149872442Y-114871180D01*
X149702820Y-114701558D01*
X149593011Y-114621777D01*
X150118695Y-114096094D01*
X150118695Y-114096092D01*
X150087536Y-114068766D01*
X150087532Y-114068763D01*
X149841420Y-113904317D01*
X149575959Y-113773407D01*
X149575945Y-113773401D01*
X149295675Y-113678262D01*
X149295665Y-113678260D01*
X149005370Y-113620515D01*
X149005356Y-113620513D01*
X148710003Y-113601155D01*
X148709997Y-113601155D01*
X148414643Y-113620513D01*
X148414629Y-113620515D01*
X148124334Y-113678260D01*
X148124324Y-113678262D01*
X147844054Y-113773401D01*
X147844040Y-113773407D01*
X147578580Y-113904317D01*
X147332465Y-114068765D01*
X147301303Y-114096092D01*
X147301303Y-114096094D01*
X147826987Y-114621778D01*
X147717180Y-114701558D01*
X147547558Y-114871180D01*
X147467778Y-114980987D01*
X146942094Y-114455303D01*
X146942092Y-114455303D01*
X146914765Y-114486465D01*
X146750317Y-114732580D01*
X146619407Y-114998040D01*
X146619401Y-114998054D01*
X146524262Y-115278324D01*
X146524260Y-115278334D01*
X146466515Y-115568629D01*
X146466513Y-115568643D01*
X146447155Y-115863996D01*
X121125500Y-115863996D01*
X121125500Y-112726500D01*
X157283996Y-112726500D01*
X157303957Y-112916427D01*
X157334026Y-113008970D01*
X157362973Y-113098056D01*
X157362976Y-113098061D01*
X157458458Y-113263441D01*
X157458465Y-113263451D01*
X157586244Y-113405364D01*
X157586247Y-113405366D01*
X157740748Y-113517618D01*
X157915212Y-113595294D01*
X158102013Y-113635000D01*
X158292987Y-113635000D01*
X158479788Y-113595294D01*
X158654252Y-113517618D01*
X158808753Y-113405366D01*
X158808755Y-113405364D01*
X158936534Y-113263451D01*
X158936535Y-113263449D01*
X158936540Y-113263444D01*
X159032027Y-113098056D01*
X159091042Y-112916428D01*
X159111004Y-112726500D01*
X159091042Y-112536572D01*
X159032027Y-112354944D01*
X158998073Y-112296134D01*
X158950881Y-112214394D01*
X158934000Y-112151394D01*
X158934000Y-110778779D01*
X158954002Y-110710658D01*
X158966362Y-110694470D01*
X158974040Y-110685944D01*
X159069527Y-110520556D01*
X159128542Y-110338928D01*
X159148504Y-110149000D01*
X159128542Y-109959072D01*
X159069527Y-109777444D01*
X158974040Y-109612056D01*
X158974038Y-109612054D01*
X158974034Y-109612048D01*
X158846255Y-109470135D01*
X158691752Y-109357882D01*
X158517288Y-109280206D01*
X158330487Y-109240500D01*
X158139513Y-109240500D01*
X157952711Y-109280206D01*
X157778247Y-109357882D01*
X157623744Y-109470135D01*
X157495965Y-109612048D01*
X157495958Y-109612058D01*
X157400476Y-109777438D01*
X157400473Y-109777445D01*
X157341457Y-109959072D01*
X157321496Y-110149000D01*
X157341457Y-110338927D01*
X157371526Y-110431470D01*
X157400473Y-110520556D01*
X157400476Y-110520561D01*
X157495958Y-110685942D01*
X157495960Y-110685944D01*
X157503634Y-110694467D01*
X157534353Y-110758473D01*
X157536000Y-110778779D01*
X157536000Y-112055072D01*
X157515998Y-112123193D01*
X157503636Y-112139382D01*
X157458465Y-112189548D01*
X157458458Y-112189558D01*
X157362976Y-112354938D01*
X157362973Y-112354945D01*
X157303957Y-112536572D01*
X157283996Y-112726500D01*
X121125500Y-112726500D01*
X121125500Y-108244000D01*
X143586502Y-108244000D01*
X143606457Y-108472087D01*
X143665716Y-108693243D01*
X143762477Y-108900749D01*
X143893802Y-109088300D01*
X144055700Y-109250198D01*
X144243251Y-109381523D01*
X144450757Y-109478284D01*
X144671913Y-109537543D01*
X144900000Y-109557498D01*
X145128087Y-109537543D01*
X145349243Y-109478284D01*
X145556749Y-109381523D01*
X145744300Y-109250198D01*
X145906198Y-109088300D01*
X146037523Y-108900749D01*
X146134284Y-108693243D01*
X146193543Y-108472087D01*
X146213498Y-108244000D01*
X153746502Y-108244000D01*
X153766457Y-108472087D01*
X153825716Y-108693243D01*
X153922477Y-108900749D01*
X154053802Y-109088300D01*
X154215700Y-109250198D01*
X154403251Y-109381523D01*
X154610757Y-109478284D01*
X154831913Y-109537543D01*
X155060000Y-109557498D01*
X155288087Y-109537543D01*
X155509243Y-109478284D01*
X155716749Y-109381523D01*
X155904300Y-109250198D01*
X156066198Y-109088300D01*
X156197523Y-108900749D01*
X156294284Y-108693243D01*
X156353543Y-108472087D01*
X156373498Y-108244000D01*
X156353543Y-108015913D01*
X156339995Y-107965350D01*
X161806500Y-107965350D01*
X161806500Y-112372649D01*
X161813009Y-112433196D01*
X161813011Y-112433204D01*
X161864110Y-112570202D01*
X161864112Y-112570207D01*
X161951738Y-112687261D01*
X162068792Y-112774887D01*
X162068794Y-112774888D01*
X162068796Y-112774889D01*
X162127875Y-112796924D01*
X162205795Y-112825988D01*
X162205803Y-112825990D01*
X162266350Y-112832499D01*
X162266355Y-112832499D01*
X162266362Y-112832500D01*
X162266368Y-112832500D01*
X164363632Y-112832500D01*
X164363638Y-112832500D01*
X164363645Y-112832499D01*
X164363649Y-112832499D01*
X164424196Y-112825990D01*
X164424199Y-112825989D01*
X164424201Y-112825989D01*
X164561204Y-112774889D01*
X164678261Y-112687261D01*
X164765889Y-112570204D01*
X164816989Y-112433201D01*
X164823500Y-112372638D01*
X164823500Y-110275362D01*
X164823500Y-107965362D01*
X164821103Y-107943062D01*
X164816990Y-107904803D01*
X164816988Y-107904795D01*
X164775945Y-107794757D01*
X164765889Y-107767796D01*
X164765888Y-107767794D01*
X164765887Y-107767792D01*
X164678261Y-107650738D01*
X164561207Y-107563112D01*
X164561202Y-107563110D01*
X164424204Y-107512011D01*
X164424196Y-107512009D01*
X164363649Y-107505500D01*
X164363638Y-107505500D01*
X162266362Y-107505500D01*
X162266350Y-107505500D01*
X162205803Y-107512009D01*
X162205795Y-107512011D01*
X162068797Y-107563110D01*
X162068792Y-107563112D01*
X161951738Y-107650738D01*
X161864112Y-107767792D01*
X161864110Y-107767797D01*
X161813011Y-107904795D01*
X161813009Y-107904803D01*
X161806500Y-107965350D01*
X156339995Y-107965350D01*
X156294284Y-107794757D01*
X156197523Y-107587251D01*
X156066198Y-107399700D01*
X155904300Y-107237802D01*
X155716749Y-107106477D01*
X155509246Y-107009717D01*
X155509240Y-107009715D01*
X155346224Y-106966035D01*
X155288087Y-106950457D01*
X155060000Y-106930502D01*
X154831913Y-106950457D01*
X154610759Y-107009715D01*
X154610753Y-107009717D01*
X154403250Y-107106477D01*
X154215703Y-107237799D01*
X154215697Y-107237804D01*
X154053804Y-107399697D01*
X154053799Y-107399703D01*
X153922477Y-107587250D01*
X153825717Y-107794753D01*
X153825715Y-107794759D01*
X153780005Y-107965350D01*
X153766457Y-108015913D01*
X153746502Y-108244000D01*
X146213498Y-108244000D01*
X146193543Y-108015913D01*
X146134284Y-107794757D01*
X146037523Y-107587251D01*
X145906198Y-107399700D01*
X145744300Y-107237802D01*
X145556749Y-107106477D01*
X145349246Y-107009717D01*
X145349240Y-107009715D01*
X145186224Y-106966035D01*
X145128087Y-106950457D01*
X144900000Y-106930502D01*
X144671913Y-106950457D01*
X144450759Y-107009715D01*
X144450753Y-107009717D01*
X144243250Y-107106477D01*
X144055703Y-107237799D01*
X144055697Y-107237804D01*
X143893804Y-107399697D01*
X143893799Y-107399703D01*
X143762477Y-107587250D01*
X143665717Y-107794753D01*
X143665715Y-107794759D01*
X143620005Y-107965350D01*
X143606457Y-108015913D01*
X143586502Y-108244000D01*
X121125500Y-108244000D01*
X121125500Y-105841860D01*
X121145502Y-105773739D01*
X121199158Y-105727246D01*
X121269432Y-105717142D01*
X121334012Y-105746636D01*
X121371333Y-105802924D01*
X121404999Y-105906541D01*
X121416028Y-105940483D01*
X121513106Y-106131009D01*
X121638794Y-106304004D01*
X121638796Y-106304006D01*
X121638798Y-106304009D01*
X121789990Y-106455201D01*
X121789993Y-106455203D01*
X121789996Y-106455206D01*
X121962991Y-106580894D01*
X122153517Y-106677972D01*
X122356878Y-106744047D01*
X122356879Y-106744047D01*
X122356884Y-106744049D01*
X122568084Y-106777500D01*
X122568087Y-106777500D01*
X122781913Y-106777500D01*
X122781916Y-106777500D01*
X122993116Y-106744049D01*
X123196483Y-106677972D01*
X123387009Y-106580894D01*
X123560004Y-106455206D01*
X123711206Y-106304004D01*
X123836894Y-106131009D01*
X123836902Y-106130992D01*
X123837854Y-106129441D01*
X123838377Y-106128967D01*
X123839804Y-106127004D01*
X123840216Y-106127303D01*
X123890497Y-106081804D01*
X123960537Y-106070189D01*
X124025738Y-106098285D01*
X124050484Y-106126843D01*
X124050624Y-106126742D01*
X124051801Y-106128362D01*
X124052729Y-106129433D01*
X124053535Y-106130749D01*
X124179177Y-106303679D01*
X124330320Y-106454822D01*
X124503249Y-106580463D01*
X124693707Y-106677506D01*
X124693713Y-106677509D01*
X124896998Y-106743560D01*
X124961000Y-106753696D01*
X124961000Y-105499702D01*
X125022007Y-105534925D01*
X125149174Y-105569000D01*
X125280826Y-105569000D01*
X125407993Y-105534925D01*
X125469000Y-105499702D01*
X125469000Y-106753696D01*
X125533001Y-106743560D01*
X125736286Y-106677509D01*
X125736292Y-106677506D01*
X125926750Y-106580463D01*
X126099679Y-106454822D01*
X126250822Y-106303679D01*
X126376460Y-106130754D01*
X126377261Y-106129448D01*
X126377695Y-106129054D01*
X126379376Y-106126742D01*
X126379861Y-106127094D01*
X126429900Y-106081807D01*
X126499940Y-106070188D01*
X126565142Y-106098280D01*
X126590097Y-106127075D01*
X126590196Y-106127004D01*
X126591025Y-106128145D01*
X126592136Y-106129427D01*
X126593103Y-106131006D01*
X126668518Y-106234806D01*
X126718794Y-106304004D01*
X126718796Y-106304006D01*
X126718798Y-106304009D01*
X126869990Y-106455201D01*
X126869993Y-106455203D01*
X126869996Y-106455206D01*
X127042991Y-106580894D01*
X127233517Y-106677972D01*
X127436878Y-106744047D01*
X127436879Y-106744047D01*
X127436884Y-106744049D01*
X127648084Y-106777500D01*
X127648087Y-106777500D01*
X127861913Y-106777500D01*
X127861916Y-106777500D01*
X128073116Y-106744049D01*
X128276483Y-106677972D01*
X128467009Y-106580894D01*
X128640004Y-106455206D01*
X128791206Y-106304004D01*
X128916894Y-106131009D01*
X128916899Y-106130997D01*
X128917561Y-106129920D01*
X128917924Y-106129591D01*
X128919804Y-106127004D01*
X128920347Y-106127398D01*
X128970204Y-106082283D01*
X129040244Y-106070670D01*
X129105445Y-106098766D01*
X129130021Y-106127130D01*
X129130196Y-106127004D01*
X129131668Y-106129030D01*
X129132439Y-106129920D01*
X129133104Y-106131006D01*
X129133106Y-106131009D01*
X129258794Y-106304004D01*
X129258796Y-106304006D01*
X129258798Y-106304009D01*
X129409990Y-106455201D01*
X129409993Y-106455203D01*
X129409996Y-106455206D01*
X129582991Y-106580894D01*
X129773517Y-106677972D01*
X129976878Y-106744047D01*
X129976879Y-106744047D01*
X129976884Y-106744049D01*
X130188084Y-106777500D01*
X130188087Y-106777500D01*
X130401913Y-106777500D01*
X130401916Y-106777500D01*
X130613116Y-106744049D01*
X130816483Y-106677972D01*
X131007009Y-106580894D01*
X131180004Y-106455206D01*
X131331206Y-106304004D01*
X131456894Y-106131009D01*
X131456899Y-106130997D01*
X131457561Y-106129920D01*
X131457924Y-106129591D01*
X131459804Y-106127004D01*
X131460347Y-106127398D01*
X131510204Y-106082283D01*
X131580244Y-106070670D01*
X131645445Y-106098766D01*
X131670021Y-106127130D01*
X131670196Y-106127004D01*
X131671668Y-106129030D01*
X131672439Y-106129920D01*
X131673104Y-106131006D01*
X131673106Y-106131009D01*
X131798794Y-106304004D01*
X131798796Y-106304006D01*
X131798798Y-106304009D01*
X131949990Y-106455201D01*
X131949993Y-106455203D01*
X131949996Y-106455206D01*
X132122991Y-106580894D01*
X132313517Y-106677972D01*
X132516878Y-106744047D01*
X132516879Y-106744047D01*
X132516884Y-106744049D01*
X132728084Y-106777500D01*
X132728087Y-106777500D01*
X132941913Y-106777500D01*
X132941916Y-106777500D01*
X133153116Y-106744049D01*
X133356483Y-106677972D01*
X133547009Y-106580894D01*
X133720004Y-106455206D01*
X133871206Y-106304004D01*
X133996894Y-106131009D01*
X133996899Y-106130997D01*
X133997561Y-106129920D01*
X133997924Y-106129591D01*
X133999804Y-106127004D01*
X134000347Y-106127398D01*
X134050204Y-106082283D01*
X134120244Y-106070670D01*
X134185445Y-106098766D01*
X134210021Y-106127130D01*
X134210196Y-106127004D01*
X134211668Y-106129030D01*
X134212439Y-106129920D01*
X134213104Y-106131006D01*
X134213106Y-106131009D01*
X134338794Y-106304004D01*
X134338796Y-106304006D01*
X134338798Y-106304009D01*
X134489990Y-106455201D01*
X134489993Y-106455203D01*
X134489996Y-106455206D01*
X134662991Y-106580894D01*
X134853517Y-106677972D01*
X135056878Y-106744047D01*
X135056879Y-106744047D01*
X135056884Y-106744049D01*
X135268084Y-106777500D01*
X135268087Y-106777500D01*
X135481913Y-106777500D01*
X135481916Y-106777500D01*
X135693116Y-106744049D01*
X135896483Y-106677972D01*
X136087009Y-106580894D01*
X136260004Y-106455206D01*
X136411206Y-106304004D01*
X136536894Y-106131009D01*
X136536899Y-106130997D01*
X136537561Y-106129920D01*
X136537924Y-106129591D01*
X136539804Y-106127004D01*
X136540347Y-106127398D01*
X136590204Y-106082283D01*
X136660244Y-106070670D01*
X136725445Y-106098766D01*
X136750021Y-106127130D01*
X136750196Y-106127004D01*
X136751668Y-106129030D01*
X136752439Y-106129920D01*
X136753104Y-106131006D01*
X136753106Y-106131009D01*
X136878794Y-106304004D01*
X136878796Y-106304006D01*
X136878798Y-106304009D01*
X137029990Y-106455201D01*
X137029993Y-106455203D01*
X137029996Y-106455206D01*
X137202991Y-106580894D01*
X137393517Y-106677972D01*
X137596878Y-106744047D01*
X137596879Y-106744047D01*
X137596884Y-106744049D01*
X137808084Y-106777500D01*
X137808087Y-106777500D01*
X138021913Y-106777500D01*
X138021916Y-106777500D01*
X138233116Y-106744049D01*
X138436483Y-106677972D01*
X138627009Y-106580894D01*
X138800004Y-106455206D01*
X138902982Y-106352227D01*
X138965292Y-106318204D01*
X139036108Y-106323268D01*
X139092944Y-106365815D01*
X139110131Y-106397291D01*
X139154110Y-106515203D01*
X139154112Y-106515207D01*
X139241738Y-106632261D01*
X139358792Y-106719887D01*
X139358794Y-106719888D01*
X139358796Y-106719889D01*
X139417875Y-106741924D01*
X139495795Y-106770988D01*
X139495803Y-106770990D01*
X139556350Y-106777499D01*
X139556355Y-106777499D01*
X139556362Y-106777500D01*
X139556368Y-106777500D01*
X141353632Y-106777500D01*
X141353638Y-106777500D01*
X141353645Y-106777499D01*
X141353649Y-106777499D01*
X141414196Y-106770990D01*
X141414199Y-106770989D01*
X141414201Y-106770989D01*
X141551204Y-106719889D01*
X141607199Y-106677972D01*
X141668261Y-106632261D01*
X141755887Y-106515207D01*
X141755887Y-106515206D01*
X141755889Y-106515204D01*
X141806989Y-106378201D01*
X141809782Y-106352229D01*
X141813499Y-106317649D01*
X141813500Y-106317632D01*
X141813500Y-103820367D01*
X141813499Y-103820350D01*
X141806990Y-103759803D01*
X141806988Y-103759795D01*
X141755889Y-103622797D01*
X141755887Y-103622792D01*
X141668261Y-103505738D01*
X141551207Y-103418112D01*
X141551202Y-103418110D01*
X141414204Y-103367011D01*
X141414196Y-103367009D01*
X141353649Y-103360500D01*
X141353638Y-103360500D01*
X139556362Y-103360500D01*
X139556350Y-103360500D01*
X139495803Y-103367009D01*
X139495795Y-103367011D01*
X139358797Y-103418110D01*
X139358792Y-103418112D01*
X139241738Y-103505738D01*
X139154112Y-103622792D01*
X139154110Y-103622797D01*
X139110131Y-103740708D01*
X139067584Y-103797544D01*
X139001064Y-103822354D01*
X138931690Y-103807262D01*
X138902981Y-103785770D01*
X138800009Y-103682798D01*
X138800006Y-103682796D01*
X138800004Y-103682794D01*
X138627009Y-103557106D01*
X138436483Y-103460028D01*
X138436480Y-103460027D01*
X138436478Y-103460026D01*
X138233120Y-103393952D01*
X138233123Y-103393952D01*
X138193801Y-103387724D01*
X138021916Y-103360500D01*
X137808084Y-103360500D01*
X137596884Y-103393951D01*
X137596878Y-103393952D01*
X137393521Y-103460026D01*
X137393515Y-103460029D01*
X137202987Y-103557108D01*
X137029993Y-103682796D01*
X137029990Y-103682798D01*
X136878798Y-103833990D01*
X136878796Y-103833993D01*
X136753108Y-104006987D01*
X136752434Y-104008088D01*
X136752068Y-104008418D01*
X136750196Y-104010996D01*
X136749654Y-104010602D01*
X136699787Y-104055721D01*
X136629745Y-104067328D01*
X136564547Y-104039226D01*
X136539976Y-104010870D01*
X136539804Y-104010996D01*
X136538341Y-104008982D01*
X136537566Y-104008088D01*
X136536896Y-104006996D01*
X136536894Y-104006991D01*
X136411206Y-103833996D01*
X136411203Y-103833993D01*
X136411201Y-103833990D01*
X136260009Y-103682798D01*
X136260006Y-103682796D01*
X136260004Y-103682794D01*
X136087009Y-103557106D01*
X135896483Y-103460028D01*
X135896480Y-103460027D01*
X135896478Y-103460026D01*
X135693120Y-103393952D01*
X135693123Y-103393952D01*
X135653801Y-103387724D01*
X135481916Y-103360500D01*
X135268084Y-103360500D01*
X135056884Y-103393951D01*
X135056878Y-103393952D01*
X134853521Y-103460026D01*
X134853515Y-103460029D01*
X134662987Y-103557108D01*
X134489993Y-103682796D01*
X134489990Y-103682798D01*
X134338798Y-103833990D01*
X134338796Y-103833993D01*
X134213108Y-104006987D01*
X134212434Y-104008088D01*
X134212068Y-104008418D01*
X134210196Y-104010996D01*
X134209654Y-104010602D01*
X134159787Y-104055721D01*
X134089745Y-104067328D01*
X134024547Y-104039226D01*
X133999976Y-104010870D01*
X133999804Y-104010996D01*
X133998341Y-104008982D01*
X133997566Y-104008088D01*
X133996896Y-104006996D01*
X133996894Y-104006991D01*
X133871206Y-103833996D01*
X133871203Y-103833993D01*
X133871201Y-103833990D01*
X133720009Y-103682798D01*
X133720006Y-103682796D01*
X133720004Y-103682794D01*
X133547009Y-103557106D01*
X133356483Y-103460028D01*
X133356480Y-103460027D01*
X133356478Y-103460026D01*
X133304046Y-103442990D01*
X133280477Y-103435332D01*
X133221872Y-103395260D01*
X133194235Y-103329863D01*
X133206342Y-103259906D01*
X133254348Y-103207600D01*
X133319414Y-103189500D01*
X133480562Y-103189500D01*
X133495500Y-103174562D01*
X133495500Y-98084000D01*
X134011844Y-98084000D01*
X134030437Y-98308375D01*
X134085702Y-98526612D01*
X134085703Y-98526613D01*
X134176141Y-98732793D01*
X134299275Y-98921265D01*
X134299279Y-98921270D01*
X134451762Y-99086908D01*
X134506331Y-99129381D01*
X134629424Y-99225189D01*
X134662680Y-99243186D01*
X134713071Y-99293200D01*
X134728423Y-99362516D01*
X134703862Y-99429129D01*
X134662680Y-99464813D01*
X134629426Y-99482810D01*
X134629424Y-99482811D01*
X134451762Y-99621091D01*
X134299279Y-99786729D01*
X134299275Y-99786734D01*
X134176141Y-99975206D01*
X134085703Y-100181386D01*
X134085702Y-100181387D01*
X134030437Y-100399624D01*
X134011844Y-100624000D01*
X134030437Y-100848375D01*
X134085702Y-101066612D01*
X134085703Y-101066613D01*
X134176141Y-101272793D01*
X134299275Y-101461265D01*
X134299279Y-101461270D01*
X134451762Y-101626908D01*
X134506331Y-101669381D01*
X134629424Y-101765189D01*
X134827426Y-101872342D01*
X134827427Y-101872342D01*
X134827428Y-101872343D01*
X134939227Y-101910723D01*
X135040365Y-101945444D01*
X135262431Y-101982500D01*
X135262435Y-101982500D01*
X135487565Y-101982500D01*
X135487569Y-101982500D01*
X135709635Y-101945444D01*
X135922574Y-101872342D01*
X136120576Y-101765189D01*
X136298240Y-101626906D01*
X136450722Y-101461268D01*
X136573860Y-101272791D01*
X136664296Y-101066616D01*
X136719564Y-100848368D01*
X136738156Y-100624000D01*
X136719564Y-100399632D01*
X136664296Y-100181384D01*
X136573860Y-99975209D01*
X136567140Y-99964924D01*
X136450724Y-99786734D01*
X136450720Y-99786729D01*
X136298237Y-99621091D01*
X136178367Y-99527792D01*
X136120576Y-99482811D01*
X136087319Y-99464813D01*
X136036929Y-99414802D01*
X136021576Y-99345485D01*
X136046136Y-99278872D01*
X136087320Y-99243186D01*
X136120576Y-99225189D01*
X136298240Y-99086906D01*
X136450722Y-98921268D01*
X136573860Y-98732791D01*
X136664296Y-98526616D01*
X136719564Y-98308368D01*
X136738156Y-98084000D01*
X136719564Y-97859632D01*
X136664296Y-97641384D01*
X136573860Y-97435209D01*
X136567140Y-97424924D01*
X136450724Y-97246734D01*
X136450720Y-97246729D01*
X136298237Y-97081091D01*
X136216382Y-97017381D01*
X136120576Y-96942811D01*
X136086792Y-96924528D01*
X136036402Y-96874516D01*
X136021050Y-96805199D01*
X136045610Y-96738586D01*
X136086793Y-96702901D01*
X136120300Y-96684767D01*
X136120301Y-96684767D01*
X136297902Y-96546534D01*
X136450325Y-96380958D01*
X136573419Y-96192548D01*
X136663820Y-95986456D01*
X136663823Y-95986449D01*
X136711544Y-95798000D01*
X135805703Y-95798000D01*
X135840925Y-95736993D01*
X135875000Y-95609826D01*
X135875000Y-95478174D01*
X135840925Y-95351007D01*
X135805703Y-95290000D01*
X136711544Y-95290000D01*
X136711544Y-95289999D01*
X136663823Y-95101550D01*
X136663820Y-95101543D01*
X136573419Y-94895451D01*
X136450325Y-94707041D01*
X136307018Y-94551367D01*
X136275598Y-94487702D01*
X136283585Y-94417156D01*
X136328444Y-94362127D01*
X136355679Y-94347977D01*
X136471204Y-94304889D01*
X136588261Y-94217261D01*
X136675889Y-94100204D01*
X136726989Y-93963201D01*
X136733500Y-93902638D01*
X136733500Y-93004000D01*
X159411844Y-93004000D01*
X159430437Y-93228375D01*
X159485702Y-93446612D01*
X159485703Y-93446613D01*
X159576141Y-93652793D01*
X159699275Y-93841265D01*
X159699279Y-93841270D01*
X159851762Y-94006908D01*
X159906331Y-94049381D01*
X160029424Y-94145189D01*
X160062680Y-94163186D01*
X160113071Y-94213200D01*
X160128423Y-94282516D01*
X160103862Y-94349129D01*
X160062680Y-94384813D01*
X160029426Y-94402810D01*
X160029424Y-94402811D01*
X159851762Y-94541091D01*
X159699279Y-94706729D01*
X159699275Y-94706734D01*
X159576141Y-94895206D01*
X159485703Y-95101386D01*
X159485702Y-95101387D01*
X159430437Y-95319624D01*
X159430436Y-95319630D01*
X159430436Y-95319632D01*
X159411844Y-95544000D01*
X159427836Y-95736993D01*
X159430437Y-95768375D01*
X159485702Y-95986612D01*
X159485703Y-95986613D01*
X159485704Y-95986616D01*
X159576140Y-96192791D01*
X159576141Y-96192793D01*
X159699275Y-96381265D01*
X159699279Y-96381270D01*
X159851762Y-96546908D01*
X159906331Y-96589381D01*
X160029424Y-96685189D01*
X160062153Y-96702901D01*
X160062680Y-96703186D01*
X160113071Y-96753200D01*
X160128423Y-96822516D01*
X160103862Y-96889129D01*
X160062680Y-96924813D01*
X160029426Y-96942810D01*
X160029424Y-96942811D01*
X159851762Y-97081091D01*
X159699279Y-97246729D01*
X159699275Y-97246734D01*
X159576141Y-97435206D01*
X159485703Y-97641386D01*
X159485702Y-97641387D01*
X159430437Y-97859624D01*
X159411844Y-98084000D01*
X159430437Y-98308375D01*
X159485702Y-98526612D01*
X159485703Y-98526613D01*
X159576141Y-98732793D01*
X159699275Y-98921265D01*
X159699280Y-98921270D01*
X159842475Y-99076820D01*
X159873896Y-99140485D01*
X159865909Y-99211031D01*
X159821051Y-99266060D01*
X159793807Y-99280213D01*
X159678797Y-99323110D01*
X159678792Y-99323112D01*
X159561738Y-99410738D01*
X159474112Y-99527792D01*
X159474110Y-99527797D01*
X159423011Y-99664795D01*
X159423009Y-99664803D01*
X159416500Y-99725350D01*
X159416500Y-101522649D01*
X159423009Y-101583196D01*
X159423011Y-101583204D01*
X159474110Y-101720202D01*
X159474112Y-101720207D01*
X159561738Y-101837261D01*
X159678792Y-101924887D01*
X159678794Y-101924888D01*
X159678796Y-101924889D01*
X159733900Y-101945442D01*
X159815795Y-101975988D01*
X159815803Y-101975990D01*
X159876350Y-101982499D01*
X159876355Y-101982499D01*
X159876362Y-101982500D01*
X159876368Y-101982500D01*
X161673632Y-101982500D01*
X161673638Y-101982500D01*
X161673645Y-101982499D01*
X161673649Y-101982499D01*
X161734196Y-101975990D01*
X161734199Y-101975989D01*
X161734201Y-101975989D01*
X161871204Y-101924889D01*
X161941399Y-101872342D01*
X161988261Y-101837261D01*
X162075887Y-101720207D01*
X162075887Y-101720206D01*
X162075889Y-101720204D01*
X162126989Y-101583201D01*
X162133500Y-101522638D01*
X162133500Y-99725362D01*
X162133499Y-99725350D01*
X162126990Y-99664803D01*
X162126988Y-99664795D01*
X162075889Y-99527797D01*
X162075887Y-99527792D01*
X161988261Y-99410738D01*
X161871207Y-99323112D01*
X161871203Y-99323110D01*
X161756192Y-99280213D01*
X161699356Y-99237667D01*
X161674546Y-99171146D01*
X161689638Y-99101772D01*
X161707525Y-99076820D01*
X161850714Y-98921277D01*
X161850724Y-98921265D01*
X161857441Y-98910983D01*
X161973860Y-98732791D01*
X162064296Y-98526616D01*
X162119564Y-98308368D01*
X162138156Y-98084000D01*
X162119564Y-97859632D01*
X162064296Y-97641384D01*
X161973860Y-97435209D01*
X161967140Y-97424924D01*
X161850724Y-97246734D01*
X161850720Y-97246729D01*
X161698237Y-97081091D01*
X161616382Y-97017381D01*
X161520576Y-96942811D01*
X161487319Y-96924813D01*
X161436929Y-96874802D01*
X161421576Y-96805485D01*
X161446136Y-96738872D01*
X161487320Y-96703186D01*
X161487847Y-96702901D01*
X161520576Y-96685189D01*
X161698240Y-96546906D01*
X161850722Y-96381268D01*
X161973860Y-96192791D01*
X162064296Y-95986616D01*
X162119564Y-95768368D01*
X162138156Y-95544000D01*
X162119564Y-95319632D01*
X162064338Y-95101550D01*
X162064297Y-95101387D01*
X162064296Y-95101386D01*
X162064296Y-95101384D01*
X161973860Y-94895209D01*
X161967140Y-94884924D01*
X161850724Y-94706734D01*
X161850720Y-94706729D01*
X161698237Y-94541091D01*
X161590251Y-94457042D01*
X161520576Y-94402811D01*
X161487319Y-94384813D01*
X161436929Y-94334802D01*
X161421576Y-94265485D01*
X161446136Y-94198872D01*
X161487320Y-94163186D01*
X161520576Y-94145189D01*
X161698240Y-94006906D01*
X161850722Y-93841268D01*
X161973860Y-93652791D01*
X162064296Y-93446616D01*
X162119564Y-93228368D01*
X162138156Y-93004000D01*
X162119564Y-92779632D01*
X162064296Y-92561384D01*
X161973860Y-92355209D01*
X161855678Y-92174317D01*
X161850724Y-92166734D01*
X161850720Y-92166729D01*
X161698237Y-92001091D01*
X161578367Y-91907792D01*
X161520576Y-91862811D01*
X161322574Y-91755658D01*
X161322572Y-91755657D01*
X161322571Y-91755656D01*
X161109639Y-91682557D01*
X161109630Y-91682555D01*
X161065476Y-91675187D01*
X160887569Y-91645500D01*
X160662431Y-91645500D01*
X160514211Y-91670233D01*
X160440369Y-91682555D01*
X160440360Y-91682557D01*
X160227428Y-91755656D01*
X160227426Y-91755658D01*
X160029426Y-91862810D01*
X160029424Y-91862811D01*
X159851762Y-92001091D01*
X159699279Y-92166729D01*
X159699275Y-92166734D01*
X159576141Y-92355206D01*
X159485703Y-92561386D01*
X159485702Y-92561387D01*
X159430437Y-92779624D01*
X159411844Y-93004000D01*
X136733500Y-93004000D01*
X136733500Y-92105362D01*
X136733499Y-92105350D01*
X136726990Y-92044803D01*
X136726988Y-92044795D01*
X136675889Y-91907797D01*
X136675887Y-91907792D01*
X136588261Y-91790738D01*
X136471207Y-91703112D01*
X136471202Y-91703110D01*
X136334204Y-91652011D01*
X136334196Y-91652009D01*
X136273649Y-91645500D01*
X136273638Y-91645500D01*
X134476362Y-91645500D01*
X134476350Y-91645500D01*
X134415803Y-91652009D01*
X134415795Y-91652011D01*
X134278797Y-91703110D01*
X134278792Y-91703112D01*
X134161738Y-91790738D01*
X134074112Y-91907792D01*
X134074110Y-91907797D01*
X134023011Y-92044795D01*
X134023009Y-92044803D01*
X134016500Y-92105350D01*
X134016500Y-93902649D01*
X134023009Y-93963196D01*
X134023011Y-93963204D01*
X134074110Y-94100202D01*
X134074112Y-94100207D01*
X134161738Y-94217261D01*
X134278792Y-94304887D01*
X134278796Y-94304889D01*
X134394312Y-94347975D01*
X134451148Y-94390522D01*
X134475958Y-94457042D01*
X134460866Y-94526416D01*
X134442981Y-94551367D01*
X134299674Y-94707041D01*
X134176580Y-94895451D01*
X134086179Y-95101543D01*
X134086176Y-95101550D01*
X134038455Y-95289999D01*
X134038456Y-95290000D01*
X134944297Y-95290000D01*
X134909075Y-95351007D01*
X134875000Y-95478174D01*
X134875000Y-95609826D01*
X134909075Y-95736993D01*
X134944297Y-95798000D01*
X134038455Y-95798000D01*
X134086176Y-95986449D01*
X134086179Y-95986456D01*
X134176580Y-96192548D01*
X134299674Y-96380958D01*
X134452097Y-96546534D01*
X134629698Y-96684767D01*
X134629704Y-96684771D01*
X134663207Y-96702902D01*
X134713597Y-96752915D01*
X134728949Y-96822232D01*
X134704388Y-96888845D01*
X134663207Y-96924528D01*
X134629430Y-96942807D01*
X134629424Y-96942811D01*
X134451762Y-97081091D01*
X134299279Y-97246729D01*
X134299275Y-97246734D01*
X134176141Y-97435206D01*
X134085703Y-97641386D01*
X134085702Y-97641387D01*
X134030437Y-97859624D01*
X134011844Y-98084000D01*
X133495500Y-98084000D01*
X133495500Y-92373956D01*
X133495888Y-92364070D01*
X133510044Y-92184202D01*
X133513137Y-92164674D01*
X133527375Y-92105367D01*
X133554096Y-91994064D01*
X133560205Y-91975265D01*
X133627348Y-91813166D01*
X133636319Y-91795560D01*
X133727999Y-91645951D01*
X133739615Y-91629963D01*
X133853567Y-91496544D01*
X133867546Y-91482566D01*
X133986641Y-91380848D01*
X134000963Y-91368615D01*
X134016951Y-91356999D01*
X134166560Y-91265319D01*
X134184166Y-91256348D01*
X134346269Y-91189203D01*
X134365064Y-91183096D01*
X134535674Y-91142136D01*
X134555202Y-91139044D01*
X134735070Y-91124888D01*
X134744956Y-91124500D01*
X151986955Y-91124500D01*
X151986958Y-91124500D01*
X152188364Y-91092601D01*
X152382299Y-91029587D01*
X152563990Y-90937011D01*
X152728962Y-90817152D01*
X152873152Y-90672962D01*
X152993011Y-90507990D01*
X153085587Y-90326299D01*
X153148601Y-90132364D01*
X153180500Y-89930958D01*
X153180500Y-89829000D01*
X153180500Y-89820715D01*
X153180500Y-82844000D01*
X159411844Y-82844000D01*
X159430437Y-83068375D01*
X159485702Y-83286612D01*
X159485703Y-83286613D01*
X159576141Y-83492793D01*
X159699275Y-83681265D01*
X159699279Y-83681270D01*
X159851762Y-83846908D01*
X159906331Y-83889381D01*
X160029424Y-83985189D01*
X160062680Y-84003186D01*
X160113071Y-84053200D01*
X160128423Y-84122516D01*
X160103862Y-84189129D01*
X160062680Y-84224813D01*
X160029426Y-84242810D01*
X160029424Y-84242811D01*
X159851762Y-84381091D01*
X159699279Y-84546729D01*
X159699275Y-84546734D01*
X159576141Y-84735206D01*
X159485703Y-84941386D01*
X159485702Y-84941387D01*
X159430437Y-85159624D01*
X159411844Y-85384000D01*
X159430437Y-85608375D01*
X159485702Y-85826612D01*
X159485703Y-85826613D01*
X159576141Y-86032793D01*
X159699275Y-86221265D01*
X159699279Y-86221270D01*
X159851762Y-86386908D01*
X159906331Y-86429381D01*
X160029424Y-86525189D01*
X160227426Y-86632342D01*
X160227427Y-86632342D01*
X160227428Y-86632343D01*
X160339227Y-86670723D01*
X160440365Y-86705444D01*
X160662431Y-86742500D01*
X160662435Y-86742500D01*
X160887565Y-86742500D01*
X160887569Y-86742500D01*
X161109635Y-86705444D01*
X161322574Y-86632342D01*
X161520576Y-86525189D01*
X161698240Y-86386906D01*
X161850722Y-86221268D01*
X161973860Y-86032791D01*
X162064296Y-85826616D01*
X162119564Y-85608368D01*
X162138156Y-85384000D01*
X162119564Y-85159632D01*
X162064296Y-84941384D01*
X161973860Y-84735209D01*
X161967140Y-84724924D01*
X161850724Y-84546734D01*
X161850720Y-84546729D01*
X161698237Y-84381091D01*
X161616382Y-84317381D01*
X161520576Y-84242811D01*
X161487319Y-84224813D01*
X161436929Y-84174802D01*
X161421576Y-84105485D01*
X161446136Y-84038872D01*
X161487320Y-84003186D01*
X161520576Y-83985189D01*
X161698240Y-83846906D01*
X161850722Y-83681268D01*
X161973860Y-83492791D01*
X162064296Y-83286616D01*
X162119564Y-83068368D01*
X162138156Y-82844000D01*
X162119564Y-82619632D01*
X162064296Y-82401384D01*
X161973860Y-82195209D01*
X161967140Y-82184924D01*
X161850724Y-82006734D01*
X161850720Y-82006729D01*
X161698237Y-81841091D01*
X161616382Y-81777381D01*
X161520576Y-81702811D01*
X161486792Y-81684528D01*
X161436402Y-81634516D01*
X161421050Y-81565199D01*
X161445610Y-81498586D01*
X161486793Y-81462901D01*
X161520300Y-81444767D01*
X161520301Y-81444767D01*
X161697902Y-81306534D01*
X161850325Y-81140958D01*
X161973419Y-80952548D01*
X162063820Y-80746456D01*
X162063823Y-80746449D01*
X162111544Y-80558000D01*
X161205703Y-80558000D01*
X161240925Y-80496993D01*
X161275000Y-80369826D01*
X161275000Y-80238174D01*
X161240925Y-80111007D01*
X161205703Y-80050000D01*
X162111544Y-80050000D01*
X162111544Y-80049999D01*
X162063823Y-79861550D01*
X162063820Y-79861543D01*
X161973419Y-79655451D01*
X161850325Y-79467041D01*
X161697902Y-79301465D01*
X161520301Y-79163232D01*
X161520300Y-79163231D01*
X161322371Y-79056117D01*
X161322369Y-79056116D01*
X161109512Y-78983043D01*
X161109501Y-78983040D01*
X161029000Y-78969606D01*
X161029000Y-79873297D01*
X160967993Y-79838075D01*
X160840826Y-79804000D01*
X160709174Y-79804000D01*
X160582007Y-79838075D01*
X160521000Y-79873297D01*
X160521000Y-78969607D01*
X160520999Y-78969606D01*
X160440498Y-78983040D01*
X160440487Y-78983043D01*
X160227630Y-79056116D01*
X160227628Y-79056117D01*
X160029699Y-79163231D01*
X160029698Y-79163232D01*
X159852097Y-79301465D01*
X159699674Y-79467041D01*
X159576580Y-79655451D01*
X159486179Y-79861543D01*
X159486176Y-79861550D01*
X159438455Y-80049999D01*
X159438456Y-80050000D01*
X160344297Y-80050000D01*
X160309075Y-80111007D01*
X160275000Y-80238174D01*
X160275000Y-80369826D01*
X160309075Y-80496993D01*
X160344297Y-80558000D01*
X159438455Y-80558000D01*
X159486176Y-80746449D01*
X159486179Y-80746456D01*
X159576580Y-80952548D01*
X159699674Y-81140958D01*
X159852097Y-81306534D01*
X160029698Y-81444767D01*
X160029704Y-81444771D01*
X160063207Y-81462902D01*
X160113597Y-81512915D01*
X160128949Y-81582232D01*
X160104388Y-81648845D01*
X160063207Y-81684528D01*
X160029430Y-81702807D01*
X160029424Y-81702811D01*
X159851762Y-81841091D01*
X159699279Y-82006729D01*
X159699275Y-82006734D01*
X159576141Y-82195206D01*
X159485703Y-82401386D01*
X159485702Y-82401387D01*
X159430437Y-82619624D01*
X159411844Y-82844000D01*
X153180500Y-82844000D01*
X153180500Y-79038956D01*
X153180888Y-79029070D01*
X153195044Y-78849202D01*
X153198137Y-78829674D01*
X153239095Y-78659069D01*
X153245205Y-78640265D01*
X153288103Y-78536701D01*
X153312348Y-78478166D01*
X153321319Y-78460560D01*
X153412999Y-78310951D01*
X153424615Y-78294963D01*
X153538567Y-78161544D01*
X153552546Y-78147566D01*
X153671641Y-78045848D01*
X153685963Y-78033615D01*
X153701951Y-78021999D01*
X153851560Y-77930319D01*
X153869166Y-77921348D01*
X154031269Y-77854203D01*
X154050064Y-77848096D01*
X154220674Y-77807136D01*
X154240202Y-77804044D01*
X154420070Y-77789888D01*
X154429956Y-77789500D01*
X154433285Y-77789500D01*
X163941715Y-77789500D01*
X163945044Y-77789500D01*
X163954930Y-77789888D01*
G37*
G04 #@! TD.AperFunction*
M02*
